%TF.GenerationSoftware,KiCad,Pcbnew,(5.1.10)-1*%
%TF.CreationDate,2021-07-05T10:50:30-04:00*%
%TF.ProjectId,PID-controller-pcb,5049442d-636f-46e7-9472-6f6c6c65722d,rev?*%
%TF.SameCoordinates,Original*%
%TF.FileFunction,Copper,L2,Bot*%
%TF.FilePolarity,Positive*%
%FSLAX46Y46*%
G04 Gerber Fmt 4.6, Leading zero omitted, Abs format (unit mm)*
G04 Created by KiCad (PCBNEW (5.1.10)-1) date 2021-07-05 10:50:30*
%MOMM*%
%LPD*%
G01*
G04 APERTURE LIST*
%TA.AperFunction,ComponentPad*%
%ADD10O,1.600000X2.500000*%
%TD*%
%TA.AperFunction,ComponentPad*%
%ADD11O,3.500000X7.000000*%
%TD*%
%TA.AperFunction,ComponentPad*%
%ADD12O,1.700000X1.700000*%
%TD*%
%TA.AperFunction,ComponentPad*%
%ADD13R,1.700000X1.700000*%
%TD*%
%TA.AperFunction,ViaPad*%
%ADD14C,0.800000*%
%TD*%
%TA.AperFunction,Conductor*%
%ADD15C,0.250000*%
%TD*%
G04 APERTURE END LIST*
D10*
%TO.P,ThermInBNC,2*%
%TO.N,N/C*%
X257810000Y-59690000D03*
%TO.P,ThermInBNC,1*%
X260350000Y-59690000D03*
D11*
%TO.P,ThermInBNC,2*%
X265430000Y-54610000D03*
X255270000Y-54610000D03*
%TD*%
D10*
%TO.P,CurrInBNC,2*%
%TO.N,N/C*%
X237490000Y-59690000D03*
%TO.P,CurrInBNC,1*%
X240030000Y-59690000D03*
D11*
%TO.P,CurrInBNC,2*%
X245110000Y-54610000D03*
X234950000Y-54610000D03*
%TD*%
D10*
%TO.P,CurrOutBNC,2*%
%TO.N,N/C*%
X217170000Y-59690000D03*
%TO.P,CurrOutBNC,1*%
X219710000Y-59690000D03*
D11*
%TO.P,CurrOutBNC,2*%
X224790000Y-54610000D03*
X214630000Y-54610000D03*
%TD*%
D12*
%TO.P,QWIIK LCD,4*%
%TO.N,N/C*%
X234696000Y-110490000D03*
%TO.P,QWIIK LCD,3*%
X234696000Y-107950000D03*
%TO.P,QWIIK LCD,2*%
X234696000Y-105410000D03*
D13*
%TO.P,QWIIK LCD,1*%
X234696000Y-102870000D03*
%TD*%
D12*
%TO.P,Pico2,20*%
%TO.N,N/C*%
X199390000Y-97790000D03*
%TO.P,Pico2,19*%
X199390000Y-95250000D03*
%TO.P,Pico2,18*%
X199390000Y-92710000D03*
%TO.P,Pico2,17*%
X199390000Y-90170000D03*
%TO.P,Pico2,16*%
X199390000Y-87630000D03*
%TO.P,Pico2,15*%
X199390000Y-85090000D03*
%TO.P,Pico2,14*%
X199390000Y-82550000D03*
%TO.P,Pico2,13*%
X199390000Y-80010000D03*
%TO.P,Pico2,12*%
X199390000Y-77470000D03*
%TO.P,Pico2,11*%
X199390000Y-74930000D03*
%TO.P,Pico2,10*%
X199390000Y-72390000D03*
%TO.P,Pico2,9*%
X199390000Y-69850000D03*
%TO.P,Pico2,8*%
X199390000Y-67310000D03*
%TO.P,Pico2,7*%
X199390000Y-64770000D03*
%TO.P,Pico2,6*%
X199390000Y-62230000D03*
%TO.P,Pico2,5*%
X199390000Y-59690000D03*
%TO.P,Pico2,4*%
X199390000Y-57150000D03*
%TO.P,Pico2,3*%
X199390000Y-54610000D03*
%TO.P,Pico2,2*%
X199390000Y-52070000D03*
D13*
%TO.P,Pico2,1*%
X199390000Y-49530000D03*
%TD*%
D12*
%TO.P,Pico1,20*%
%TO.N,N/C*%
X181610000Y-97790000D03*
%TO.P,Pico1,19*%
X181610000Y-95250000D03*
%TO.P,Pico1,18*%
X181610000Y-92710000D03*
%TO.P,Pico1,17*%
X181610000Y-90170000D03*
%TO.P,Pico1,16*%
X181610000Y-87630000D03*
%TO.P,Pico1,15*%
X181610000Y-85090000D03*
%TO.P,Pico1,14*%
X181610000Y-82550000D03*
%TO.P,Pico1,13*%
X181610000Y-80010000D03*
%TO.P,Pico1,12*%
X181610000Y-77470000D03*
%TO.P,Pico1,11*%
X181610000Y-74930000D03*
%TO.P,Pico1,10*%
X181610000Y-72390000D03*
%TO.P,Pico1,9*%
X181610000Y-69850000D03*
%TO.P,Pico1,8*%
X181610000Y-67310000D03*
%TO.P,Pico1,7*%
X181610000Y-64770000D03*
%TO.P,Pico1,6*%
X181610000Y-62230000D03*
%TO.P,Pico1,5*%
X181610000Y-59690000D03*
%TO.P,Pico1,4*%
X181610000Y-57150000D03*
%TO.P,Pico1,3*%
X181610000Y-54610000D03*
%TO.P,Pico1,2*%
X181610000Y-52070000D03*
D13*
%TO.P,Pico1,1*%
X181610000Y-49530000D03*
%TD*%
D12*
%TO.P,ETH2,6*%
%TO.N,N/C*%
X156210000Y-63500000D03*
%TO.P,ETH2,5*%
X156210000Y-60960000D03*
%TO.P,ETH2,4*%
X156210000Y-58420000D03*
%TO.P,ETH2,3*%
X156210000Y-55880000D03*
%TO.P,ETH2,2*%
X156210000Y-53340000D03*
D13*
%TO.P,ETH2,1*%
X156210000Y-50800000D03*
%TD*%
D12*
%TO.P,ETH1,6*%
%TO.N,N/C*%
X135890000Y-63500000D03*
%TO.P,ETH1,5*%
X135890000Y-60960000D03*
%TO.P,ETH1,4*%
X135890000Y-58420000D03*
%TO.P,ETH1,3*%
X135890000Y-55880000D03*
%TO.P,ETH1,2*%
X135890000Y-53340000D03*
D13*
%TO.P,ETH1,1*%
X135890000Y-50800000D03*
%TD*%
D12*
%TO.P,ADS,10*%
%TO.N,N/C*%
X184150000Y-118110000D03*
%TO.P,ADS,9*%
X186690000Y-118110000D03*
%TO.P,ADS,8*%
X189230000Y-118110000D03*
%TO.P,ADS,7*%
X191770000Y-118110000D03*
%TO.P,ADS,6*%
X194310000Y-118110000D03*
%TO.P,ADS,5*%
X196850000Y-118110000D03*
%TO.P,ADS,4*%
X199390000Y-118110000D03*
%TO.P,ADS,3*%
X201930000Y-118110000D03*
%TO.P,ADS,2*%
X204470000Y-118110000D03*
D13*
%TO.P,ADS,1*%
X207010000Y-118110000D03*
%TD*%
D12*
%TO.P,DAC,6*%
%TO.N,N/C*%
X168910000Y-118110000D03*
%TO.P,DAC,5*%
X166370000Y-118110000D03*
%TO.P,DAC,4*%
X163830000Y-118110000D03*
%TO.P,DAC,3*%
X161290000Y-118110000D03*
%TO.P,DAC,2*%
X158750000Y-118110000D03*
D13*
%TO.P,DAC,1*%
X156210000Y-118110000D03*
%TD*%
D14*
%TO.N,*%
X166370000Y-78740000D03*
X163068000Y-63500000D03*
X217932000Y-112268000D03*
X194310000Y-113792000D03*
X201930000Y-106172000D03*
X226822000Y-102616000D03*
X192024000Y-113792000D03*
X201422000Y-104394000D03*
X223774000Y-103124000D03*
X204216000Y-114046000D03*
X205994000Y-115316000D03*
%TD*%
D15*
%TO.N,*%
X160020000Y-76200000D02*
X181610000Y-97790000D01*
X160020000Y-60960000D02*
X160020000Y-76200000D01*
X163068000Y-69088000D02*
X181610000Y-87630000D01*
X163068000Y-63500000D02*
X163068000Y-69088000D01*
X170180000Y-78740000D02*
X181610000Y-90170000D01*
X166370000Y-78740000D02*
X170180000Y-78740000D01*
X156210000Y-60960000D02*
X160020000Y-60960000D01*
X206248000Y-76962000D02*
X234696000Y-105410000D01*
X206248000Y-59690000D02*
X206248000Y-76962000D01*
X199390000Y-54610000D02*
X203962000Y-54610000D01*
X203962000Y-54610000D02*
X208534000Y-59182000D01*
X208534000Y-76708000D02*
X234696000Y-102870000D01*
X208534000Y-59182000D02*
X208534000Y-76708000D01*
X156210000Y-118110000D02*
X156210000Y-121158000D01*
X156210000Y-121158000D02*
X157988000Y-122936000D01*
X204470000Y-119126000D02*
X204470000Y-118110000D01*
X200660000Y-122936000D02*
X204470000Y-119126000D01*
X166370000Y-118110000D02*
X166370000Y-122936000D01*
X157988000Y-122936000D02*
X166370000Y-122936000D01*
X168910000Y-118110000D02*
X177292000Y-118110000D01*
X177292000Y-118110000D02*
X183134000Y-112268000D01*
X183134000Y-112268000D02*
X217932000Y-112268000D01*
X217932000Y-112268000D02*
X217932000Y-112268000D01*
X216662000Y-59182000D02*
X217170000Y-59690000D01*
X208534000Y-59182000D02*
X216662000Y-59182000D01*
X217678000Y-60960000D02*
X217678000Y-62484000D01*
X217678000Y-62484000D02*
X218694000Y-63500000D01*
X233680000Y-63500000D02*
X237490000Y-59690000D01*
X254000000Y-63500000D02*
X257810000Y-59690000D01*
X233426000Y-63500000D02*
X254000000Y-63500000D01*
X218694000Y-63500000D02*
X233426000Y-63500000D01*
X233426000Y-63500000D02*
X233680000Y-63500000D01*
X229870000Y-115316000D02*
X234696000Y-110490000D01*
X204724000Y-115316000D02*
X229870000Y-115316000D01*
X201930000Y-118110000D02*
X204724000Y-115316000D01*
X199390000Y-118110000D02*
X203454000Y-114046000D01*
X228600000Y-114046000D02*
X234696000Y-107950000D01*
X203454000Y-114046000D02*
X205486000Y-114046000D01*
X196850000Y-118110000D02*
X196850000Y-122936000D01*
X196850000Y-122936000D02*
X200660000Y-122936000D01*
X166370000Y-122936000D02*
X196850000Y-122936000D01*
X194310000Y-113792000D02*
X194310000Y-113792000D01*
X201930000Y-106172000D02*
X223266000Y-106172000D01*
X223266000Y-106172000D02*
X226822000Y-102616000D01*
X226822000Y-102616000D02*
X226822000Y-102616000D01*
X191770000Y-116332000D02*
X194310000Y-113792000D01*
X191770000Y-118110000D02*
X191770000Y-116332000D01*
X184150000Y-118110000D02*
X184150000Y-116586000D01*
X184150000Y-116586000D02*
X186944000Y-113792000D01*
X186944000Y-113792000D02*
X192024000Y-113792000D01*
X192024000Y-113792000D02*
X192024000Y-113792000D01*
X201422000Y-104394000D02*
X222504000Y-104394000D01*
X222504000Y-104394000D02*
X223774000Y-103124000D01*
X223774000Y-103124000D02*
X223774000Y-103124000D01*
X205486000Y-114046000D02*
X205994000Y-114046000D01*
X205994000Y-114046000D02*
X228600000Y-114046000D01*
X214630000Y-54610000D02*
X224790000Y-54610000D01*
X224790000Y-54610000D02*
X234950000Y-54610000D01*
X234950000Y-54610000D02*
X245110000Y-54610000D01*
X245110000Y-54610000D02*
X255270000Y-54610000D01*
X255270000Y-54610000D02*
X265430000Y-54610000D01*
X255270000Y-57150000D02*
X257810000Y-59690000D01*
X255270000Y-54610000D02*
X255270000Y-57150000D01*
X234950000Y-57150000D02*
X237490000Y-59690000D01*
X234950000Y-54610000D02*
X234950000Y-57150000D01*
X214630000Y-57150000D02*
X217170000Y-59690000D01*
X214630000Y-54610000D02*
X214630000Y-57150000D01*
X199390000Y-59690000D02*
X206248000Y-59690000D01*
X199390000Y-59690000D02*
X197358000Y-59690000D01*
X197358000Y-59690000D02*
X184658000Y-46990000D01*
X184658000Y-46990000D02*
X169672000Y-46990000D01*
X163322000Y-53340000D02*
X156210000Y-53340000D01*
X169672000Y-46990000D02*
X163322000Y-53340000D01*
%TD*%
M02*
