M48
; DRILL file {KiCad (5.1.10)-1} date 06/29/21 12:41:59
; FORMAT={-:-/ absolute / inch / decimal}
; #@! TF.CreationDate,2021-06-29T12:41:59-04:00
; #@! TF.GenerationSoftware,Kicad,Pcbnew,(5.1.10)-1
FMAT,2
INCH
T1C0.0157
T2C0.0350
T3C0.0394
T4C0.0791
%
G90
G05
T1
X6.42Y-2.5
X6.55Y-3.1
X7.56Y-4.48
X7.65Y-4.48
X7.93Y-4.11
X7.95Y-4.18
X8.04Y-4.49
X8.11Y-4.54
X8.58Y-4.42
X8.81Y-4.06
X8.93Y-4.04
T2
X8.55Y-2.35
X8.65Y-2.35
X9.35Y-2.35
X9.45Y-2.35
X10.15Y-2.35
X10.25Y-2.35
T3
X5.35Y-2.0
X5.35Y-2.1
X5.35Y-2.2
X5.35Y-2.3
X5.35Y-2.4
X5.35Y-2.5
X6.15Y-2.0
X6.15Y-2.1
X6.15Y-2.2
X6.15Y-2.3
X6.15Y-2.4
X6.15Y-2.5
X6.15Y-4.65
X6.25Y-4.65
X6.35Y-4.65
X6.45Y-4.65
X6.55Y-4.65
X6.65Y-4.65
X7.15Y-1.95
X7.15Y-2.05
X7.15Y-2.15
X7.15Y-2.25
X7.15Y-2.35
X7.15Y-2.45
X7.15Y-2.55
X7.15Y-2.65
X7.15Y-2.75
X7.15Y-2.85
X7.15Y-2.95
X7.15Y-3.05
X7.15Y-3.15
X7.15Y-3.25
X7.15Y-3.35
X7.15Y-3.45
X7.15Y-3.55
X7.15Y-3.65
X7.15Y-3.75
X7.15Y-3.85
X7.25Y-4.65
X7.35Y-4.65
X7.45Y-4.65
X7.55Y-4.65
X7.65Y-4.65
X7.75Y-4.65
X7.85Y-1.95
X7.85Y-2.05
X7.85Y-2.15
X7.85Y-2.25
X7.85Y-2.35
X7.85Y-2.45
X7.85Y-2.55
X7.85Y-2.65
X7.85Y-2.75
X7.85Y-2.85
X7.85Y-2.95
X7.85Y-3.05
X7.85Y-3.15
X7.85Y-3.25
X7.85Y-3.35
X7.85Y-3.45
X7.85Y-3.55
X7.85Y-3.65
X7.85Y-3.75
X7.85Y-3.85
X7.85Y-4.65
X7.95Y-4.65
X8.05Y-4.65
X8.15Y-4.65
X9.24Y-4.05
X9.24Y-4.15
X9.24Y-4.25
X9.24Y-4.35
T4
X8.45Y-2.15
X8.85Y-2.15
X9.25Y-2.15
X9.65Y-2.15
X10.05Y-2.15
X10.45Y-2.15
T0
M30
