M48
; DRILL file {KiCad (5.1.10)-1} date 07/17/21 12:24:23
; FORMAT={-:-/ absolute / inch / decimal}
; #@! TF.CreationDate,2021-07-17T12:24:23-04:00
; #@! TF.GenerationSoftware,Kicad,Pcbnew,(5.1.10)-1
FMAT,2
INCH
T1C0.0157
T2C0.0350
T3C0.0394
T4C0.0791
%
G90
G05
T1
X6.2Y-4.01
X6.26Y-4.17
X6.42Y-2.5
X6.55Y-3.1
X8.04Y-4.49
X8.11Y-4.54
X8.81Y-4.06
X8.96Y-4.04
X9.06Y-4.11
T2
X4.46Y-2.33
X4.56Y-2.33
X8.83Y-2.33
X8.93Y-2.33
X9.98Y-2.33
X10.08Y-2.33
T3
X5.14Y-3.68
X5.14Y-3.78
X5.14Y-3.88
X5.14Y-3.98
X5.14Y-4.08
X5.24Y-3.68
X5.24Y-3.78
X5.24Y-3.88
X5.24Y-3.98
X5.24Y-4.08
X5.35Y-2.0
X5.35Y-2.1
X5.35Y-2.2
X5.35Y-2.3
X5.35Y-2.4
X5.35Y-2.5
X6.15Y-2.0
X6.15Y-2.1
X6.15Y-2.2
X6.15Y-2.3
X6.15Y-2.4
X6.15Y-2.5
X6.15Y-4.65
X6.25Y-4.65
X6.35Y-4.65
X6.38Y-3.88
X6.38Y-3.98
X6.38Y-4.08
X6.45Y-4.65
X6.55Y-4.65
X6.65Y-4.65
X7.15Y-1.95
X7.15Y-2.05
X7.15Y-2.15
X7.15Y-2.25
X7.15Y-2.35
X7.15Y-2.45
X7.15Y-2.55
X7.15Y-2.65
X7.15Y-2.75
X7.15Y-2.85
X7.15Y-2.95
X7.15Y-3.05
X7.15Y-3.15
X7.15Y-3.25
X7.15Y-3.35
X7.15Y-3.45
X7.15Y-3.55
X7.15Y-3.65
X7.15Y-3.75
X7.15Y-3.85
X7.25Y-4.65
X7.35Y-4.65
X7.45Y-4.65
X7.55Y-4.65
X7.65Y-4.65
X7.75Y-4.65
X7.85Y-1.95
X7.85Y-2.05
X7.85Y-2.15
X7.85Y-2.25
X7.85Y-2.35
X7.85Y-2.45
X7.85Y-2.55
X7.85Y-2.65
X7.85Y-2.75
X7.85Y-2.85
X7.85Y-2.95
X7.85Y-3.05
X7.85Y-3.15
X7.85Y-3.25
X7.85Y-3.35
X7.85Y-3.45
X7.85Y-3.55
X7.85Y-3.65
X7.85Y-3.75
X7.85Y-3.85
X7.85Y-4.65
X7.95Y-4.65
X8.05Y-4.65
X8.15Y-4.65
X9.24Y-4.05
X9.24Y-4.15
X9.24Y-4.25
X9.24Y-4.35
T4
X4.36Y-2.13
X4.76Y-2.13
X8.73Y-2.13
X9.13Y-2.13
X9.88Y-2.13
X10.28Y-2.13
T0
M30
