%TF.GenerationSoftware,KiCad,Pcbnew,(5.1.10)-1*%
%TF.CreationDate,2021-07-05T10:54:25-04:00*%
%TF.ProjectId,PID-controller-pcb,5049442d-636f-46e7-9472-6f6c6c65722d,rev?*%
%TF.SameCoordinates,Original*%
%TF.FileFunction,Legend,Top*%
%TF.FilePolarity,Positive*%
%FSLAX46Y46*%
G04 Gerber Fmt 4.6, Leading zero omitted, Abs format (unit mm)*
G04 Created by KiCad (PCBNEW (5.1.10)-1) date 2021-07-05 10:54:25*
%MOMM*%
%LPD*%
G01*
G04 APERTURE LIST*
%ADD10C,0.150000*%
%ADD11C,0.120000*%
G04 APERTURE END LIST*
D10*
X129000476Y-49982380D02*
X129000476Y-48982380D01*
X129381428Y-48982380D01*
X129476666Y-49030000D01*
X129524285Y-49077619D01*
X129571904Y-49172857D01*
X129571904Y-49315714D01*
X129524285Y-49410952D01*
X129476666Y-49458571D01*
X129381428Y-49506190D01*
X129000476Y-49506190D01*
X130000476Y-49982380D02*
X130000476Y-49315714D01*
X130000476Y-48982380D02*
X129952857Y-49030000D01*
X130000476Y-49077619D01*
X130048095Y-49030000D01*
X130000476Y-48982380D01*
X130000476Y-49077619D01*
X130476666Y-49315714D02*
X130476666Y-49982380D01*
X130476666Y-49410952D02*
X130524285Y-49363333D01*
X130619523Y-49315714D01*
X130762380Y-49315714D01*
X130857619Y-49363333D01*
X130905238Y-49458571D01*
X130905238Y-49982380D01*
X132667142Y-49982380D02*
X132095714Y-49982380D01*
X132381428Y-49982380D02*
X132381428Y-48982380D01*
X132286190Y-49125238D01*
X132190952Y-49220476D01*
X132095714Y-49268095D01*
X174720476Y-49982380D02*
X174720476Y-48982380D01*
X175101428Y-48982380D01*
X175196666Y-49030000D01*
X175244285Y-49077619D01*
X175291904Y-49172857D01*
X175291904Y-49315714D01*
X175244285Y-49410952D01*
X175196666Y-49458571D01*
X175101428Y-49506190D01*
X174720476Y-49506190D01*
X175720476Y-49982380D02*
X175720476Y-49315714D01*
X175720476Y-48982380D02*
X175672857Y-49030000D01*
X175720476Y-49077619D01*
X175768095Y-49030000D01*
X175720476Y-48982380D01*
X175720476Y-49077619D01*
X176196666Y-49315714D02*
X176196666Y-49982380D01*
X176196666Y-49410952D02*
X176244285Y-49363333D01*
X176339523Y-49315714D01*
X176482380Y-49315714D01*
X176577619Y-49363333D01*
X176625238Y-49458571D01*
X176625238Y-49982380D01*
X178387142Y-49982380D02*
X177815714Y-49982380D01*
X178101428Y-49982380D02*
X178101428Y-48982380D01*
X178006190Y-49125238D01*
X177910952Y-49220476D01*
X177815714Y-49268095D01*
X239014095Y-102370000D02*
X238918857Y-102322380D01*
X238776000Y-102322380D01*
X238633142Y-102370000D01*
X238537904Y-102465238D01*
X238490285Y-102560476D01*
X238442666Y-102750952D01*
X238442666Y-102893809D01*
X238490285Y-103084285D01*
X238537904Y-103179523D01*
X238633142Y-103274761D01*
X238776000Y-103322380D01*
X238871238Y-103322380D01*
X239014095Y-103274761D01*
X239061714Y-103227142D01*
X239061714Y-102893809D01*
X238871238Y-102893809D01*
X239490285Y-103322380D02*
X239490285Y-102322380D01*
X240061714Y-103322380D01*
X240061714Y-102322380D01*
X240537904Y-103322380D02*
X240537904Y-102322380D01*
X240776000Y-102322380D01*
X240918857Y-102370000D01*
X241014095Y-102465238D01*
X241061714Y-102560476D01*
X241109333Y-102750952D01*
X241109333Y-102893809D01*
X241061714Y-103084285D01*
X241014095Y-103179523D01*
X240918857Y-103274761D01*
X240776000Y-103322380D01*
X240537904Y-103322380D01*
X203708095Y-115070000D02*
X203612857Y-115022380D01*
X203470000Y-115022380D01*
X203327142Y-115070000D01*
X203231904Y-115165238D01*
X203184285Y-115260476D01*
X203136666Y-115450952D01*
X203136666Y-115593809D01*
X203184285Y-115784285D01*
X203231904Y-115879523D01*
X203327142Y-115974761D01*
X203470000Y-116022380D01*
X203565238Y-116022380D01*
X203708095Y-115974761D01*
X203755714Y-115927142D01*
X203755714Y-115593809D01*
X203565238Y-115593809D01*
X204184285Y-116022380D02*
X204184285Y-115022380D01*
X204755714Y-116022380D01*
X204755714Y-115022380D01*
X205231904Y-116022380D02*
X205231904Y-115022380D01*
X205470000Y-115022380D01*
X205612857Y-115070000D01*
X205708095Y-115165238D01*
X205755714Y-115260476D01*
X205803333Y-115450952D01*
X205803333Y-115593809D01*
X205755714Y-115784285D01*
X205708095Y-115879523D01*
X205612857Y-115974761D01*
X205470000Y-116022380D01*
X205231904Y-116022380D01*
X155448095Y-115070000D02*
X155352857Y-115022380D01*
X155210000Y-115022380D01*
X155067142Y-115070000D01*
X154971904Y-115165238D01*
X154924285Y-115260476D01*
X154876666Y-115450952D01*
X154876666Y-115593809D01*
X154924285Y-115784285D01*
X154971904Y-115879523D01*
X155067142Y-115974761D01*
X155210000Y-116022380D01*
X155305238Y-116022380D01*
X155448095Y-115974761D01*
X155495714Y-115927142D01*
X155495714Y-115593809D01*
X155305238Y-115593809D01*
X155924285Y-116022380D02*
X155924285Y-115022380D01*
X156495714Y-116022380D01*
X156495714Y-115022380D01*
X156971904Y-116022380D02*
X156971904Y-115022380D01*
X157210000Y-115022380D01*
X157352857Y-115070000D01*
X157448095Y-115165238D01*
X157495714Y-115260476D01*
X157543333Y-115450952D01*
X157543333Y-115593809D01*
X157495714Y-115784285D01*
X157448095Y-115879523D01*
X157352857Y-115974761D01*
X157210000Y-116022380D01*
X156971904Y-116022380D01*
D11*
%TO.C,ThermInBNC*%
X260350000Y-47190000D02*
X261350000Y-48190000D01*
X260350000Y-47190000D02*
X259350000Y-48190000D01*
X252850000Y-61990000D02*
X252850000Y-46990000D01*
X267850000Y-61990000D02*
X252850000Y-61990000D01*
X267850000Y-46990000D02*
X267850000Y-61990000D01*
X252850000Y-46990000D02*
X267850000Y-46990000D01*
%TO.C,CurrInBNC*%
X240030000Y-47190000D02*
X241030000Y-48190000D01*
X240030000Y-47190000D02*
X239030000Y-48190000D01*
X232530000Y-61990000D02*
X232530000Y-46990000D01*
X247530000Y-61990000D02*
X232530000Y-61990000D01*
X247530000Y-46990000D02*
X247530000Y-61990000D01*
X232530000Y-46990000D02*
X247530000Y-46990000D01*
%TO.C,CurrOutBNC*%
X219710000Y-47190000D02*
X220710000Y-48190000D01*
X219710000Y-47190000D02*
X218710000Y-48190000D01*
X212210000Y-61990000D02*
X212210000Y-46990000D01*
X227210000Y-61990000D02*
X212210000Y-61990000D01*
X227210000Y-46990000D02*
X227210000Y-61990000D01*
X212210000Y-46990000D02*
X227210000Y-46990000D01*
%TO.C,QWIIK LCD*%
X234696000Y-101540000D02*
X236026000Y-101540000D01*
X236026000Y-101540000D02*
X236026000Y-102870000D01*
X236026000Y-104140000D02*
X236026000Y-111820000D01*
X233366000Y-111820000D02*
X236026000Y-111820000D01*
X233366000Y-104140000D02*
X233366000Y-111820000D01*
X233366000Y-104140000D02*
X236026000Y-104140000D01*
%TO.C,Pico2*%
X199390000Y-48200000D02*
X200720000Y-48200000D01*
X200720000Y-48200000D02*
X200720000Y-49530000D01*
X200720000Y-50800000D02*
X200720000Y-99120000D01*
X198060000Y-99120000D02*
X200720000Y-99120000D01*
X198060000Y-50800000D02*
X198060000Y-99120000D01*
X198060000Y-50800000D02*
X200720000Y-50800000D01*
%TO.C,Pico1*%
X181610000Y-48200000D02*
X182940000Y-48200000D01*
X182940000Y-48200000D02*
X182940000Y-49530000D01*
X182940000Y-50800000D02*
X182940000Y-99120000D01*
X180280000Y-99120000D02*
X182940000Y-99120000D01*
X180280000Y-50800000D02*
X180280000Y-99120000D01*
X180280000Y-50800000D02*
X182940000Y-50800000D01*
%TO.C,ETH2*%
X156210000Y-49470000D02*
X157540000Y-49470000D01*
X157540000Y-49470000D02*
X157540000Y-50800000D01*
X157540000Y-52070000D02*
X157540000Y-64830000D01*
X154880000Y-64830000D02*
X157540000Y-64830000D01*
X154880000Y-52070000D02*
X154880000Y-64830000D01*
X154880000Y-52070000D02*
X157540000Y-52070000D01*
%TO.C,ETH1*%
X135890000Y-49470000D02*
X137220000Y-49470000D01*
X137220000Y-49470000D02*
X137220000Y-50800000D01*
X137220000Y-52070000D02*
X137220000Y-64830000D01*
X134560000Y-64830000D02*
X137220000Y-64830000D01*
X134560000Y-52070000D02*
X134560000Y-64830000D01*
X134560000Y-52070000D02*
X137220000Y-52070000D01*
%TO.C,ADS*%
X208340000Y-118110000D02*
X208340000Y-119440000D01*
X208340000Y-119440000D02*
X207010000Y-119440000D01*
X205740000Y-119440000D02*
X182820000Y-119440000D01*
X182820000Y-116780000D02*
X182820000Y-119440000D01*
X205740000Y-116780000D02*
X182820000Y-116780000D01*
X205740000Y-116780000D02*
X205740000Y-119440000D01*
%TO.C,DAC*%
X154880000Y-118110000D02*
X154880000Y-116780000D01*
X154880000Y-116780000D02*
X156210000Y-116780000D01*
X157480000Y-116780000D02*
X170240000Y-116780000D01*
X170240000Y-119440000D02*
X170240000Y-116780000D01*
X157480000Y-119440000D02*
X170240000Y-119440000D01*
X157480000Y-119440000D02*
X157480000Y-116780000D01*
%TO.C,REF\u002A\u002A*%
D10*
X140906666Y-115886380D02*
X140573333Y-115410190D01*
X140335238Y-115886380D02*
X140335238Y-114886380D01*
X140716190Y-114886380D01*
X140811428Y-114934000D01*
X140859047Y-114981619D01*
X140906666Y-115076857D01*
X140906666Y-115219714D01*
X140859047Y-115314952D01*
X140811428Y-115362571D01*
X140716190Y-115410190D01*
X140335238Y-115410190D01*
X141335238Y-115362571D02*
X141668571Y-115362571D01*
X141811428Y-115886380D02*
X141335238Y-115886380D01*
X141335238Y-114886380D01*
X141811428Y-114886380D01*
X142573333Y-115362571D02*
X142240000Y-115362571D01*
X142240000Y-115886380D02*
X142240000Y-114886380D01*
X142716190Y-114886380D01*
X143240000Y-114886380D02*
X143240000Y-115124476D01*
X143001904Y-115029238D02*
X143240000Y-115124476D01*
X143478095Y-115029238D01*
X143097142Y-115314952D02*
X143240000Y-115124476D01*
X143382857Y-115314952D01*
X144001904Y-114886380D02*
X144001904Y-115124476D01*
X143763809Y-115029238D02*
X144001904Y-115124476D01*
X144240000Y-115029238D01*
X143859047Y-115314952D02*
X144001904Y-115124476D01*
X144144761Y-115314952D01*
X255968666Y-115886380D02*
X255635333Y-115410190D01*
X255397238Y-115886380D02*
X255397238Y-114886380D01*
X255778190Y-114886380D01*
X255873428Y-114934000D01*
X255921047Y-114981619D01*
X255968666Y-115076857D01*
X255968666Y-115219714D01*
X255921047Y-115314952D01*
X255873428Y-115362571D01*
X255778190Y-115410190D01*
X255397238Y-115410190D01*
X256397238Y-115362571D02*
X256730571Y-115362571D01*
X256873428Y-115886380D02*
X256397238Y-115886380D01*
X256397238Y-114886380D01*
X256873428Y-114886380D01*
X257635333Y-115362571D02*
X257302000Y-115362571D01*
X257302000Y-115886380D02*
X257302000Y-114886380D01*
X257778190Y-114886380D01*
X258302000Y-114886380D02*
X258302000Y-115124476D01*
X258063904Y-115029238D02*
X258302000Y-115124476D01*
X258540095Y-115029238D01*
X258159142Y-115314952D02*
X258302000Y-115124476D01*
X258444857Y-115314952D01*
X259063904Y-114886380D02*
X259063904Y-115124476D01*
X258825809Y-115029238D02*
X259063904Y-115124476D01*
X259302000Y-115029238D01*
X258921047Y-115314952D02*
X259063904Y-115124476D01*
X259206761Y-115314952D01*
X140906666Y-85914380D02*
X140573333Y-85438190D01*
X140335238Y-85914380D02*
X140335238Y-84914380D01*
X140716190Y-84914380D01*
X140811428Y-84962000D01*
X140859047Y-85009619D01*
X140906666Y-85104857D01*
X140906666Y-85247714D01*
X140859047Y-85342952D01*
X140811428Y-85390571D01*
X140716190Y-85438190D01*
X140335238Y-85438190D01*
X141335238Y-85390571D02*
X141668571Y-85390571D01*
X141811428Y-85914380D02*
X141335238Y-85914380D01*
X141335238Y-84914380D01*
X141811428Y-84914380D01*
X142573333Y-85390571D02*
X142240000Y-85390571D01*
X142240000Y-85914380D02*
X142240000Y-84914380D01*
X142716190Y-84914380D01*
X143240000Y-84914380D02*
X143240000Y-85152476D01*
X143001904Y-85057238D02*
X143240000Y-85152476D01*
X143478095Y-85057238D01*
X143097142Y-85342952D02*
X143240000Y-85152476D01*
X143382857Y-85342952D01*
X144001904Y-84914380D02*
X144001904Y-85152476D01*
X143763809Y-85057238D02*
X144001904Y-85152476D01*
X144240000Y-85057238D01*
X143859047Y-85342952D02*
X144001904Y-85152476D01*
X144144761Y-85342952D01*
X255968666Y-85914380D02*
X255635333Y-85438190D01*
X255397238Y-85914380D02*
X255397238Y-84914380D01*
X255778190Y-84914380D01*
X255873428Y-84962000D01*
X255921047Y-85009619D01*
X255968666Y-85104857D01*
X255968666Y-85247714D01*
X255921047Y-85342952D01*
X255873428Y-85390571D01*
X255778190Y-85438190D01*
X255397238Y-85438190D01*
X256397238Y-85390571D02*
X256730571Y-85390571D01*
X256873428Y-85914380D02*
X256397238Y-85914380D01*
X256397238Y-84914380D01*
X256873428Y-84914380D01*
X257635333Y-85390571D02*
X257302000Y-85390571D01*
X257302000Y-85914380D02*
X257302000Y-84914380D01*
X257778190Y-84914380D01*
X258302000Y-84914380D02*
X258302000Y-85152476D01*
X258063904Y-85057238D02*
X258302000Y-85152476D01*
X258540095Y-85057238D01*
X258159142Y-85342952D02*
X258302000Y-85152476D01*
X258444857Y-85342952D01*
X259063904Y-84914380D02*
X259063904Y-85152476D01*
X258825809Y-85057238D02*
X259063904Y-85152476D01*
X259302000Y-85057238D01*
X258921047Y-85342952D02*
X259063904Y-85152476D01*
X259206761Y-85342952D01*
%TO.C,ThermInBNC*%
X255992857Y-63142380D02*
X256564285Y-63142380D01*
X256278571Y-64142380D02*
X256278571Y-63142380D01*
X256897619Y-64142380D02*
X256897619Y-63142380D01*
X257326190Y-64142380D02*
X257326190Y-63618571D01*
X257278571Y-63523333D01*
X257183333Y-63475714D01*
X257040476Y-63475714D01*
X256945238Y-63523333D01*
X256897619Y-63570952D01*
X258183333Y-64094761D02*
X258088095Y-64142380D01*
X257897619Y-64142380D01*
X257802380Y-64094761D01*
X257754761Y-63999523D01*
X257754761Y-63618571D01*
X257802380Y-63523333D01*
X257897619Y-63475714D01*
X258088095Y-63475714D01*
X258183333Y-63523333D01*
X258230952Y-63618571D01*
X258230952Y-63713809D01*
X257754761Y-63809047D01*
X258659523Y-64142380D02*
X258659523Y-63475714D01*
X258659523Y-63666190D02*
X258707142Y-63570952D01*
X258754761Y-63523333D01*
X258850000Y-63475714D01*
X258945238Y-63475714D01*
X259278571Y-64142380D02*
X259278571Y-63475714D01*
X259278571Y-63570952D02*
X259326190Y-63523333D01*
X259421428Y-63475714D01*
X259564285Y-63475714D01*
X259659523Y-63523333D01*
X259707142Y-63618571D01*
X259707142Y-64142380D01*
X259707142Y-63618571D02*
X259754761Y-63523333D01*
X259850000Y-63475714D01*
X259992857Y-63475714D01*
X260088095Y-63523333D01*
X260135714Y-63618571D01*
X260135714Y-64142380D01*
X260611904Y-64142380D02*
X260611904Y-63142380D01*
X261088095Y-63475714D02*
X261088095Y-64142380D01*
X261088095Y-63570952D02*
X261135714Y-63523333D01*
X261230952Y-63475714D01*
X261373809Y-63475714D01*
X261469047Y-63523333D01*
X261516666Y-63618571D01*
X261516666Y-64142380D01*
X262326190Y-63618571D02*
X262469047Y-63666190D01*
X262516666Y-63713809D01*
X262564285Y-63809047D01*
X262564285Y-63951904D01*
X262516666Y-64047142D01*
X262469047Y-64094761D01*
X262373809Y-64142380D01*
X261992857Y-64142380D01*
X261992857Y-63142380D01*
X262326190Y-63142380D01*
X262421428Y-63190000D01*
X262469047Y-63237619D01*
X262516666Y-63332857D01*
X262516666Y-63428095D01*
X262469047Y-63523333D01*
X262421428Y-63570952D01*
X262326190Y-63618571D01*
X261992857Y-63618571D01*
X262992857Y-64142380D02*
X262992857Y-63142380D01*
X263564285Y-64142380D01*
X263564285Y-63142380D01*
X264611904Y-64047142D02*
X264564285Y-64094761D01*
X264421428Y-64142380D01*
X264326190Y-64142380D01*
X264183333Y-64094761D01*
X264088095Y-63999523D01*
X264040476Y-63904285D01*
X263992857Y-63713809D01*
X263992857Y-63570952D01*
X264040476Y-63380476D01*
X264088095Y-63285238D01*
X264183333Y-63190000D01*
X264326190Y-63142380D01*
X264421428Y-63142380D01*
X264564285Y-63190000D01*
X264611904Y-63237619D01*
%TO.C,CurrInBNC*%
X237053809Y-64047142D02*
X237006190Y-64094761D01*
X236863333Y-64142380D01*
X236768095Y-64142380D01*
X236625238Y-64094761D01*
X236530000Y-63999523D01*
X236482380Y-63904285D01*
X236434761Y-63713809D01*
X236434761Y-63570952D01*
X236482380Y-63380476D01*
X236530000Y-63285238D01*
X236625238Y-63190000D01*
X236768095Y-63142380D01*
X236863333Y-63142380D01*
X237006190Y-63190000D01*
X237053809Y-63237619D01*
X237910952Y-63475714D02*
X237910952Y-64142380D01*
X237482380Y-63475714D02*
X237482380Y-63999523D01*
X237530000Y-64094761D01*
X237625238Y-64142380D01*
X237768095Y-64142380D01*
X237863333Y-64094761D01*
X237910952Y-64047142D01*
X238387142Y-64142380D02*
X238387142Y-63475714D01*
X238387142Y-63666190D02*
X238434761Y-63570952D01*
X238482380Y-63523333D01*
X238577619Y-63475714D01*
X238672857Y-63475714D01*
X239006190Y-64142380D02*
X239006190Y-63475714D01*
X239006190Y-63666190D02*
X239053809Y-63570952D01*
X239101428Y-63523333D01*
X239196666Y-63475714D01*
X239291904Y-63475714D01*
X239625238Y-64142380D02*
X239625238Y-63142380D01*
X240101428Y-63475714D02*
X240101428Y-64142380D01*
X240101428Y-63570952D02*
X240149047Y-63523333D01*
X240244285Y-63475714D01*
X240387142Y-63475714D01*
X240482380Y-63523333D01*
X240530000Y-63618571D01*
X240530000Y-64142380D01*
X241339523Y-63618571D02*
X241482380Y-63666190D01*
X241530000Y-63713809D01*
X241577619Y-63809047D01*
X241577619Y-63951904D01*
X241530000Y-64047142D01*
X241482380Y-64094761D01*
X241387142Y-64142380D01*
X241006190Y-64142380D01*
X241006190Y-63142380D01*
X241339523Y-63142380D01*
X241434761Y-63190000D01*
X241482380Y-63237619D01*
X241530000Y-63332857D01*
X241530000Y-63428095D01*
X241482380Y-63523333D01*
X241434761Y-63570952D01*
X241339523Y-63618571D01*
X241006190Y-63618571D01*
X242006190Y-64142380D02*
X242006190Y-63142380D01*
X242577619Y-64142380D01*
X242577619Y-63142380D01*
X243625238Y-64047142D02*
X243577619Y-64094761D01*
X243434761Y-64142380D01*
X243339523Y-64142380D01*
X243196666Y-64094761D01*
X243101428Y-63999523D01*
X243053809Y-63904285D01*
X243006190Y-63713809D01*
X243006190Y-63570952D01*
X243053809Y-63380476D01*
X243101428Y-63285238D01*
X243196666Y-63190000D01*
X243339523Y-63142380D01*
X243434761Y-63142380D01*
X243577619Y-63190000D01*
X243625238Y-63237619D01*
%TO.C,CurrOutBNC*%
X216162380Y-64047142D02*
X216114761Y-64094761D01*
X215971904Y-64142380D01*
X215876666Y-64142380D01*
X215733809Y-64094761D01*
X215638571Y-63999523D01*
X215590952Y-63904285D01*
X215543333Y-63713809D01*
X215543333Y-63570952D01*
X215590952Y-63380476D01*
X215638571Y-63285238D01*
X215733809Y-63190000D01*
X215876666Y-63142380D01*
X215971904Y-63142380D01*
X216114761Y-63190000D01*
X216162380Y-63237619D01*
X217019523Y-63475714D02*
X217019523Y-64142380D01*
X216590952Y-63475714D02*
X216590952Y-63999523D01*
X216638571Y-64094761D01*
X216733809Y-64142380D01*
X216876666Y-64142380D01*
X216971904Y-64094761D01*
X217019523Y-64047142D01*
X217495714Y-64142380D02*
X217495714Y-63475714D01*
X217495714Y-63666190D02*
X217543333Y-63570952D01*
X217590952Y-63523333D01*
X217686190Y-63475714D01*
X217781428Y-63475714D01*
X218114761Y-64142380D02*
X218114761Y-63475714D01*
X218114761Y-63666190D02*
X218162380Y-63570952D01*
X218210000Y-63523333D01*
X218305238Y-63475714D01*
X218400476Y-63475714D01*
X218924285Y-63142380D02*
X219114761Y-63142380D01*
X219210000Y-63190000D01*
X219305238Y-63285238D01*
X219352857Y-63475714D01*
X219352857Y-63809047D01*
X219305238Y-63999523D01*
X219210000Y-64094761D01*
X219114761Y-64142380D01*
X218924285Y-64142380D01*
X218829047Y-64094761D01*
X218733809Y-63999523D01*
X218686190Y-63809047D01*
X218686190Y-63475714D01*
X218733809Y-63285238D01*
X218829047Y-63190000D01*
X218924285Y-63142380D01*
X220210000Y-63475714D02*
X220210000Y-64142380D01*
X219781428Y-63475714D02*
X219781428Y-63999523D01*
X219829047Y-64094761D01*
X219924285Y-64142380D01*
X220067142Y-64142380D01*
X220162380Y-64094761D01*
X220210000Y-64047142D01*
X220543333Y-63475714D02*
X220924285Y-63475714D01*
X220686190Y-63142380D02*
X220686190Y-63999523D01*
X220733809Y-64094761D01*
X220829047Y-64142380D01*
X220924285Y-64142380D01*
X221590952Y-63618571D02*
X221733809Y-63666190D01*
X221781428Y-63713809D01*
X221829047Y-63809047D01*
X221829047Y-63951904D01*
X221781428Y-64047142D01*
X221733809Y-64094761D01*
X221638571Y-64142380D01*
X221257619Y-64142380D01*
X221257619Y-63142380D01*
X221590952Y-63142380D01*
X221686190Y-63190000D01*
X221733809Y-63237619D01*
X221781428Y-63332857D01*
X221781428Y-63428095D01*
X221733809Y-63523333D01*
X221686190Y-63570952D01*
X221590952Y-63618571D01*
X221257619Y-63618571D01*
X222257619Y-64142380D02*
X222257619Y-63142380D01*
X222829047Y-64142380D01*
X222829047Y-63142380D01*
X223876666Y-64047142D02*
X223829047Y-64094761D01*
X223686190Y-64142380D01*
X223590952Y-64142380D01*
X223448095Y-64094761D01*
X223352857Y-63999523D01*
X223305238Y-63904285D01*
X223257619Y-63713809D01*
X223257619Y-63570952D01*
X223305238Y-63380476D01*
X223352857Y-63285238D01*
X223448095Y-63190000D01*
X223590952Y-63142380D01*
X223686190Y-63142380D01*
X223829047Y-63190000D01*
X223876666Y-63237619D01*
%TO.C,QWIIK LCD*%
X231743619Y-100647619D02*
X231648380Y-100600000D01*
X231553142Y-100504761D01*
X231410285Y-100361904D01*
X231315047Y-100314285D01*
X231219809Y-100314285D01*
X231267428Y-100552380D02*
X231172190Y-100504761D01*
X231076952Y-100409523D01*
X231029333Y-100219047D01*
X231029333Y-99885714D01*
X231076952Y-99695238D01*
X231172190Y-99600000D01*
X231267428Y-99552380D01*
X231457904Y-99552380D01*
X231553142Y-99600000D01*
X231648380Y-99695238D01*
X231696000Y-99885714D01*
X231696000Y-100219047D01*
X231648380Y-100409523D01*
X231553142Y-100504761D01*
X231457904Y-100552380D01*
X231267428Y-100552380D01*
X232029333Y-99552380D02*
X232267428Y-100552380D01*
X232457904Y-99838095D01*
X232648380Y-100552380D01*
X232886476Y-99552380D01*
X233267428Y-100552380D02*
X233267428Y-99552380D01*
X233743619Y-100552380D02*
X233743619Y-99552380D01*
X234219809Y-100552380D02*
X234219809Y-99552380D01*
X234791238Y-100552380D02*
X234362666Y-99980952D01*
X234791238Y-99552380D02*
X234219809Y-100123809D01*
X236457904Y-100552380D02*
X235981714Y-100552380D01*
X235981714Y-99552380D01*
X237362666Y-100457142D02*
X237315047Y-100504761D01*
X237172190Y-100552380D01*
X237076952Y-100552380D01*
X236934095Y-100504761D01*
X236838857Y-100409523D01*
X236791238Y-100314285D01*
X236743619Y-100123809D01*
X236743619Y-99980952D01*
X236791238Y-99790476D01*
X236838857Y-99695238D01*
X236934095Y-99600000D01*
X237076952Y-99552380D01*
X237172190Y-99552380D01*
X237315047Y-99600000D01*
X237362666Y-99647619D01*
X237791238Y-100552380D02*
X237791238Y-99552380D01*
X238029333Y-99552380D01*
X238172190Y-99600000D01*
X238267428Y-99695238D01*
X238315047Y-99790476D01*
X238362666Y-99980952D01*
X238362666Y-100123809D01*
X238315047Y-100314285D01*
X238267428Y-100409523D01*
X238172190Y-100504761D01*
X238029333Y-100552380D01*
X237791238Y-100552380D01*
%TO.C,Pico2*%
X197532857Y-47212380D02*
X197532857Y-46212380D01*
X197913809Y-46212380D01*
X198009047Y-46260000D01*
X198056666Y-46307619D01*
X198104285Y-46402857D01*
X198104285Y-46545714D01*
X198056666Y-46640952D01*
X198009047Y-46688571D01*
X197913809Y-46736190D01*
X197532857Y-46736190D01*
X198532857Y-47212380D02*
X198532857Y-46545714D01*
X198532857Y-46212380D02*
X198485238Y-46260000D01*
X198532857Y-46307619D01*
X198580476Y-46260000D01*
X198532857Y-46212380D01*
X198532857Y-46307619D01*
X199437619Y-47164761D02*
X199342380Y-47212380D01*
X199151904Y-47212380D01*
X199056666Y-47164761D01*
X199009047Y-47117142D01*
X198961428Y-47021904D01*
X198961428Y-46736190D01*
X199009047Y-46640952D01*
X199056666Y-46593333D01*
X199151904Y-46545714D01*
X199342380Y-46545714D01*
X199437619Y-46593333D01*
X200009047Y-47212380D02*
X199913809Y-47164761D01*
X199866190Y-47117142D01*
X199818571Y-47021904D01*
X199818571Y-46736190D01*
X199866190Y-46640952D01*
X199913809Y-46593333D01*
X200009047Y-46545714D01*
X200151904Y-46545714D01*
X200247142Y-46593333D01*
X200294761Y-46640952D01*
X200342380Y-46736190D01*
X200342380Y-47021904D01*
X200294761Y-47117142D01*
X200247142Y-47164761D01*
X200151904Y-47212380D01*
X200009047Y-47212380D01*
X200723333Y-46307619D02*
X200770952Y-46260000D01*
X200866190Y-46212380D01*
X201104285Y-46212380D01*
X201199523Y-46260000D01*
X201247142Y-46307619D01*
X201294761Y-46402857D01*
X201294761Y-46498095D01*
X201247142Y-46640952D01*
X200675714Y-47212380D01*
X201294761Y-47212380D01*
%TO.C,Pico1*%
X179752857Y-47212380D02*
X179752857Y-46212380D01*
X180133809Y-46212380D01*
X180229047Y-46260000D01*
X180276666Y-46307619D01*
X180324285Y-46402857D01*
X180324285Y-46545714D01*
X180276666Y-46640952D01*
X180229047Y-46688571D01*
X180133809Y-46736190D01*
X179752857Y-46736190D01*
X180752857Y-47212380D02*
X180752857Y-46545714D01*
X180752857Y-46212380D02*
X180705238Y-46260000D01*
X180752857Y-46307619D01*
X180800476Y-46260000D01*
X180752857Y-46212380D01*
X180752857Y-46307619D01*
X181657619Y-47164761D02*
X181562380Y-47212380D01*
X181371904Y-47212380D01*
X181276666Y-47164761D01*
X181229047Y-47117142D01*
X181181428Y-47021904D01*
X181181428Y-46736190D01*
X181229047Y-46640952D01*
X181276666Y-46593333D01*
X181371904Y-46545714D01*
X181562380Y-46545714D01*
X181657619Y-46593333D01*
X182229047Y-47212380D02*
X182133809Y-47164761D01*
X182086190Y-47117142D01*
X182038571Y-47021904D01*
X182038571Y-46736190D01*
X182086190Y-46640952D01*
X182133809Y-46593333D01*
X182229047Y-46545714D01*
X182371904Y-46545714D01*
X182467142Y-46593333D01*
X182514761Y-46640952D01*
X182562380Y-46736190D01*
X182562380Y-47021904D01*
X182514761Y-47117142D01*
X182467142Y-47164761D01*
X182371904Y-47212380D01*
X182229047Y-47212380D01*
X183514761Y-47212380D02*
X182943333Y-47212380D01*
X183229047Y-47212380D02*
X183229047Y-46212380D01*
X183133809Y-46355238D01*
X183038571Y-46450476D01*
X182943333Y-46498095D01*
%TO.C,ETH2*%
X154614761Y-47958571D02*
X154948095Y-47958571D01*
X155090952Y-48482380D02*
X154614761Y-48482380D01*
X154614761Y-47482380D01*
X155090952Y-47482380D01*
X155376666Y-47482380D02*
X155948095Y-47482380D01*
X155662380Y-48482380D02*
X155662380Y-47482380D01*
X156281428Y-48482380D02*
X156281428Y-47482380D01*
X156281428Y-47958571D02*
X156852857Y-47958571D01*
X156852857Y-48482380D02*
X156852857Y-47482380D01*
X157281428Y-47577619D02*
X157329047Y-47530000D01*
X157424285Y-47482380D01*
X157662380Y-47482380D01*
X157757619Y-47530000D01*
X157805238Y-47577619D01*
X157852857Y-47672857D01*
X157852857Y-47768095D01*
X157805238Y-47910952D01*
X157233809Y-48482380D01*
X157852857Y-48482380D01*
%TO.C,ETH1*%
X134294761Y-47958571D02*
X134628095Y-47958571D01*
X134770952Y-48482380D02*
X134294761Y-48482380D01*
X134294761Y-47482380D01*
X134770952Y-47482380D01*
X135056666Y-47482380D02*
X135628095Y-47482380D01*
X135342380Y-48482380D02*
X135342380Y-47482380D01*
X135961428Y-48482380D02*
X135961428Y-47482380D01*
X135961428Y-47958571D02*
X136532857Y-47958571D01*
X136532857Y-48482380D02*
X136532857Y-47482380D01*
X137532857Y-48482380D02*
X136961428Y-48482380D01*
X137247142Y-48482380D02*
X137247142Y-47482380D01*
X137151904Y-47625238D01*
X137056666Y-47720476D01*
X136961428Y-47768095D01*
%TO.C,ADS*%
X209946666Y-119324285D02*
X209946666Y-118848095D01*
X210232380Y-119419523D02*
X209232380Y-119086190D01*
X210232380Y-118752857D01*
X210232380Y-118419523D02*
X209232380Y-118419523D01*
X209232380Y-118181428D01*
X209280000Y-118038571D01*
X209375238Y-117943333D01*
X209470476Y-117895714D01*
X209660952Y-117848095D01*
X209803809Y-117848095D01*
X209994285Y-117895714D01*
X210089523Y-117943333D01*
X210184761Y-118038571D01*
X210232380Y-118181428D01*
X210232380Y-118419523D01*
X210184761Y-117467142D02*
X210232380Y-117324285D01*
X210232380Y-117086190D01*
X210184761Y-116990952D01*
X210137142Y-116943333D01*
X210041904Y-116895714D01*
X209946666Y-116895714D01*
X209851428Y-116943333D01*
X209803809Y-116990952D01*
X209756190Y-117086190D01*
X209708571Y-117276666D01*
X209660952Y-117371904D01*
X209613333Y-117419523D01*
X209518095Y-117467142D01*
X209422857Y-117467142D01*
X209327619Y-117419523D01*
X209280000Y-117371904D01*
X209232380Y-117276666D01*
X209232380Y-117038571D01*
X209280000Y-116895714D01*
%TO.C,DAC*%
X153892380Y-119300476D02*
X152892380Y-119300476D01*
X152892380Y-119062380D01*
X152940000Y-118919523D01*
X153035238Y-118824285D01*
X153130476Y-118776666D01*
X153320952Y-118729047D01*
X153463809Y-118729047D01*
X153654285Y-118776666D01*
X153749523Y-118824285D01*
X153844761Y-118919523D01*
X153892380Y-119062380D01*
X153892380Y-119300476D01*
X153606666Y-118348095D02*
X153606666Y-117871904D01*
X153892380Y-118443333D02*
X152892380Y-118110000D01*
X153892380Y-117776666D01*
X153797142Y-116871904D02*
X153844761Y-116919523D01*
X153892380Y-117062380D01*
X153892380Y-117157619D01*
X153844761Y-117300476D01*
X153749523Y-117395714D01*
X153654285Y-117443333D01*
X153463809Y-117490952D01*
X153320952Y-117490952D01*
X153130476Y-117443333D01*
X153035238Y-117395714D01*
X152940000Y-117300476D01*
X152892380Y-117157619D01*
X152892380Y-117062380D01*
X152940000Y-116919523D01*
X152987619Y-116871904D01*
%TD*%
M02*
