%TF.GenerationSoftware,KiCad,Pcbnew,(5.1.10)-1*%
%TF.CreationDate,2021-07-14T11:18:59-04:00*%
%TF.ProjectId,PID-controller-pcb,5049442d-636f-46e7-9472-6f6c6c65722d,rev?*%
%TF.SameCoordinates,Original*%
%TF.FileFunction,Legend,Top*%
%TF.FilePolarity,Positive*%
%FSLAX46Y46*%
G04 Gerber Fmt 4.6, Leading zero omitted, Abs format (unit mm)*
G04 Created by KiCad (PCBNEW (5.1.10)-1) date 2021-07-14 11:18:59*
%MOMM*%
%LPD*%
G01*
G04 APERTURE LIST*
%ADD10C,0.150000*%
%ADD11C,0.300000*%
%ADD12C,0.120000*%
G04 APERTURE END LIST*
D10*
X121816857Y-91663142D02*
X121769238Y-91615523D01*
X121721619Y-91472666D01*
X121721619Y-91377428D01*
X121769238Y-91234571D01*
X121864476Y-91139333D01*
X121959714Y-91091714D01*
X122150190Y-91044095D01*
X122293047Y-91044095D01*
X122483523Y-91091714D01*
X122578761Y-91139333D01*
X122674000Y-91234571D01*
X122721619Y-91377428D01*
X122721619Y-91472666D01*
X122674000Y-91615523D01*
X122626380Y-91663142D01*
X121721619Y-92520285D02*
X122245428Y-92520285D01*
X122340666Y-92472666D01*
X122388285Y-92377428D01*
X122388285Y-92186952D01*
X122340666Y-92091714D01*
X121769238Y-92520285D02*
X121721619Y-92425047D01*
X121721619Y-92186952D01*
X121769238Y-92091714D01*
X121864476Y-92044095D01*
X121959714Y-92044095D01*
X122054952Y-92091714D01*
X122102571Y-92186952D01*
X122102571Y-92425047D01*
X122150190Y-92520285D01*
X121721619Y-92996476D02*
X122721619Y-92996476D01*
X122340666Y-92996476D02*
X122388285Y-93091714D01*
X122388285Y-93282190D01*
X122340666Y-93377428D01*
X122293047Y-93425047D01*
X122197809Y-93472666D01*
X121912095Y-93472666D01*
X121816857Y-93425047D01*
X121769238Y-93377428D01*
X121721619Y-93282190D01*
X121721619Y-93091714D01*
X121769238Y-92996476D01*
X121721619Y-94044095D02*
X121769238Y-93948857D01*
X121864476Y-93901238D01*
X122721619Y-93901238D01*
X121769238Y-94806000D02*
X121721619Y-94710761D01*
X121721619Y-94520285D01*
X121769238Y-94425047D01*
X121864476Y-94377428D01*
X122245428Y-94377428D01*
X122340666Y-94425047D01*
X122388285Y-94520285D01*
X122388285Y-94710761D01*
X122340666Y-94806000D01*
X122245428Y-94853619D01*
X122150190Y-94853619D01*
X122054952Y-94377428D01*
X122388285Y-96472666D02*
X121578761Y-96472666D01*
X121483523Y-96425047D01*
X121435904Y-96377428D01*
X121388285Y-96282190D01*
X121388285Y-96139333D01*
X121435904Y-96044095D01*
X121769238Y-96472666D02*
X121721619Y-96377428D01*
X121721619Y-96186952D01*
X121769238Y-96091714D01*
X121816857Y-96044095D01*
X121912095Y-95996476D01*
X122197809Y-95996476D01*
X122293047Y-96044095D01*
X122340666Y-96091714D01*
X122388285Y-96186952D01*
X122388285Y-96377428D01*
X122340666Y-96472666D01*
X121721619Y-97091714D02*
X121769238Y-96996476D01*
X121816857Y-96948857D01*
X121912095Y-96901238D01*
X122197809Y-96901238D01*
X122293047Y-96948857D01*
X122340666Y-96996476D01*
X122388285Y-97091714D01*
X122388285Y-97234571D01*
X122340666Y-97329809D01*
X122293047Y-97377428D01*
X122197809Y-97425047D01*
X121912095Y-97425047D01*
X121816857Y-97377428D01*
X121769238Y-97329809D01*
X121721619Y-97234571D01*
X121721619Y-97091714D01*
X121769238Y-98234571D02*
X121721619Y-98139333D01*
X121721619Y-97948857D01*
X121769238Y-97853619D01*
X121864476Y-97806000D01*
X122245428Y-97806000D01*
X122340666Y-97853619D01*
X122388285Y-97948857D01*
X122388285Y-98139333D01*
X122340666Y-98234571D01*
X122245428Y-98282190D01*
X122150190Y-98282190D01*
X122054952Y-97806000D01*
X121769238Y-98663142D02*
X121721619Y-98758380D01*
X121721619Y-98948857D01*
X121769238Y-99044095D01*
X121864476Y-99091714D01*
X121912095Y-99091714D01*
X122007333Y-99044095D01*
X122054952Y-98948857D01*
X122054952Y-98806000D01*
X122102571Y-98710761D01*
X122197809Y-98663142D01*
X122245428Y-98663142D01*
X122340666Y-98710761D01*
X122388285Y-98806000D01*
X122388285Y-98948857D01*
X122340666Y-99044095D01*
X122388285Y-100139333D02*
X122388285Y-100520285D01*
X122721619Y-100282190D02*
X121864476Y-100282190D01*
X121769238Y-100329809D01*
X121721619Y-100425047D01*
X121721619Y-100520285D01*
X121721619Y-100853619D02*
X122721619Y-100853619D01*
X121721619Y-101282190D02*
X122245428Y-101282190D01*
X122340666Y-101234571D01*
X122388285Y-101139333D01*
X122388285Y-100996476D01*
X122340666Y-100901238D01*
X122293047Y-100853619D01*
X121721619Y-101758380D02*
X122388285Y-101758380D01*
X122721619Y-101758380D02*
X122674000Y-101710761D01*
X122626380Y-101758380D01*
X122674000Y-101806000D01*
X122721619Y-101758380D01*
X122626380Y-101758380D01*
X121769238Y-102186952D02*
X121721619Y-102282190D01*
X121721619Y-102472666D01*
X121769238Y-102567904D01*
X121864476Y-102615523D01*
X121912095Y-102615523D01*
X122007333Y-102567904D01*
X122054952Y-102472666D01*
X122054952Y-102329809D01*
X122102571Y-102234571D01*
X122197809Y-102186952D01*
X122245428Y-102186952D01*
X122340666Y-102234571D01*
X122388285Y-102329809D01*
X122388285Y-102472666D01*
X122340666Y-102567904D01*
X122388285Y-103710761D02*
X121721619Y-103901238D01*
X122197809Y-104091714D01*
X121721619Y-104282190D01*
X122388285Y-104472666D01*
X121721619Y-105282190D02*
X122245428Y-105282190D01*
X122340666Y-105234571D01*
X122388285Y-105139333D01*
X122388285Y-104948857D01*
X122340666Y-104853619D01*
X121769238Y-105282190D02*
X121721619Y-105186952D01*
X121721619Y-104948857D01*
X121769238Y-104853619D01*
X121864476Y-104806000D01*
X121959714Y-104806000D01*
X122054952Y-104853619D01*
X122102571Y-104948857D01*
X122102571Y-105186952D01*
X122150190Y-105282190D01*
X122388285Y-105663142D02*
X121721619Y-105901238D01*
X122388285Y-106139333D02*
X121721619Y-105901238D01*
X121483523Y-105806000D01*
X121435904Y-105758380D01*
X121388285Y-105663142D01*
X121816857Y-106520285D02*
X121769238Y-106567904D01*
X121721619Y-106520285D01*
X121769238Y-106472666D01*
X121816857Y-106520285D01*
X121721619Y-106520285D01*
X122102571Y-106520285D02*
X122674000Y-106472666D01*
X122721619Y-106520285D01*
X122674000Y-106567904D01*
X122102571Y-106520285D01*
X122721619Y-106520285D01*
D11*
X136477714Y-104564571D02*
X136477714Y-103064571D01*
X137049142Y-103064571D01*
X137192000Y-103136000D01*
X137263428Y-103207428D01*
X137334857Y-103350285D01*
X137334857Y-103564571D01*
X137263428Y-103707428D01*
X137192000Y-103778857D01*
X137049142Y-103850285D01*
X136477714Y-103850285D01*
X137977714Y-104564571D02*
X137977714Y-103564571D01*
X137977714Y-103064571D02*
X137906285Y-103136000D01*
X137977714Y-103207428D01*
X138049142Y-103136000D01*
X137977714Y-103064571D01*
X137977714Y-103207428D01*
X138692000Y-103564571D02*
X138692000Y-104564571D01*
X138692000Y-103707428D02*
X138763428Y-103636000D01*
X138906285Y-103564571D01*
X139120571Y-103564571D01*
X139263428Y-103636000D01*
X139334857Y-103778857D01*
X139334857Y-104564571D01*
X141977714Y-104564571D02*
X141120571Y-104564571D01*
X141549142Y-104564571D02*
X141549142Y-103064571D01*
X141406285Y-103278857D01*
X141263428Y-103421714D01*
X141120571Y-103493142D01*
D10*
X235125523Y-88909380D02*
X235125523Y-87909380D01*
X235363619Y-87909380D01*
X235506476Y-87957000D01*
X235601714Y-88052238D01*
X235649333Y-88147476D01*
X235696952Y-88337952D01*
X235696952Y-88480809D01*
X235649333Y-88671285D01*
X235601714Y-88766523D01*
X235506476Y-88861761D01*
X235363619Y-88909380D01*
X235125523Y-88909380D01*
X236506476Y-88861761D02*
X236411238Y-88909380D01*
X236220761Y-88909380D01*
X236125523Y-88861761D01*
X236077904Y-88766523D01*
X236077904Y-88385571D01*
X236125523Y-88290333D01*
X236220761Y-88242714D01*
X236411238Y-88242714D01*
X236506476Y-88290333D01*
X236554095Y-88385571D01*
X236554095Y-88480809D01*
X236077904Y-88576047D01*
X236935047Y-88861761D02*
X237030285Y-88909380D01*
X237220761Y-88909380D01*
X237316000Y-88861761D01*
X237363619Y-88766523D01*
X237363619Y-88718904D01*
X237316000Y-88623666D01*
X237220761Y-88576047D01*
X237077904Y-88576047D01*
X236982666Y-88528428D01*
X236935047Y-88433190D01*
X236935047Y-88385571D01*
X236982666Y-88290333D01*
X237077904Y-88242714D01*
X237220761Y-88242714D01*
X237316000Y-88290333D01*
X237792190Y-88909380D02*
X237792190Y-88242714D01*
X237792190Y-87909380D02*
X237744571Y-87957000D01*
X237792190Y-88004619D01*
X237839809Y-87957000D01*
X237792190Y-87909380D01*
X237792190Y-88004619D01*
X238696952Y-88242714D02*
X238696952Y-89052238D01*
X238649333Y-89147476D01*
X238601714Y-89195095D01*
X238506476Y-89242714D01*
X238363619Y-89242714D01*
X238268380Y-89195095D01*
X238696952Y-88861761D02*
X238601714Y-88909380D01*
X238411238Y-88909380D01*
X238316000Y-88861761D01*
X238268380Y-88814142D01*
X238220761Y-88718904D01*
X238220761Y-88433190D01*
X238268380Y-88337952D01*
X238316000Y-88290333D01*
X238411238Y-88242714D01*
X238601714Y-88242714D01*
X238696952Y-88290333D01*
X239173142Y-88242714D02*
X239173142Y-88909380D01*
X239173142Y-88337952D02*
X239220761Y-88290333D01*
X239316000Y-88242714D01*
X239458857Y-88242714D01*
X239554095Y-88290333D01*
X239601714Y-88385571D01*
X239601714Y-88909380D01*
X240458857Y-88861761D02*
X240363619Y-88909380D01*
X240173142Y-88909380D01*
X240077904Y-88861761D01*
X240030285Y-88766523D01*
X240030285Y-88385571D01*
X240077904Y-88290333D01*
X240173142Y-88242714D01*
X240363619Y-88242714D01*
X240458857Y-88290333D01*
X240506476Y-88385571D01*
X240506476Y-88480809D01*
X240030285Y-88576047D01*
X241363619Y-88909380D02*
X241363619Y-87909380D01*
X241363619Y-88861761D02*
X241268380Y-88909380D01*
X241077904Y-88909380D01*
X240982666Y-88861761D01*
X240935047Y-88814142D01*
X240887428Y-88718904D01*
X240887428Y-88433190D01*
X240935047Y-88337952D01*
X240982666Y-88290333D01*
X241077904Y-88242714D01*
X241268380Y-88242714D01*
X241363619Y-88290333D01*
X242601714Y-88909380D02*
X242601714Y-87909380D01*
X242601714Y-88290333D02*
X242696952Y-88242714D01*
X242887428Y-88242714D01*
X242982666Y-88290333D01*
X243030285Y-88337952D01*
X243077904Y-88433190D01*
X243077904Y-88718904D01*
X243030285Y-88814142D01*
X242982666Y-88861761D01*
X242887428Y-88909380D01*
X242696952Y-88909380D01*
X242601714Y-88861761D01*
X243411238Y-88242714D02*
X243649333Y-88909380D01*
X243887428Y-88242714D02*
X243649333Y-88909380D01*
X243554095Y-89147476D01*
X243506476Y-89195095D01*
X243411238Y-89242714D01*
X244982666Y-88623666D02*
X245458857Y-88623666D01*
X244887428Y-88909380D02*
X245220761Y-87909380D01*
X245554095Y-88909380D01*
X246220761Y-88385571D02*
X245887428Y-88385571D01*
X245887428Y-88909380D02*
X245887428Y-87909380D01*
X246363619Y-87909380D01*
X246887428Y-88909380D02*
X246792190Y-88861761D01*
X246744571Y-88814142D01*
X246696952Y-88718904D01*
X246696952Y-88433190D01*
X246744571Y-88337952D01*
X246792190Y-88290333D01*
X246887428Y-88242714D01*
X247030285Y-88242714D01*
X247125523Y-88290333D01*
X247173142Y-88337952D01*
X247220761Y-88433190D01*
X247220761Y-88718904D01*
X247173142Y-88814142D01*
X247125523Y-88861761D01*
X247030285Y-88909380D01*
X246887428Y-88909380D01*
X248077904Y-88242714D02*
X248077904Y-89052238D01*
X248030285Y-89147476D01*
X247982666Y-89195095D01*
X247887428Y-89242714D01*
X247744571Y-89242714D01*
X247649333Y-89195095D01*
X248077904Y-88861761D02*
X247982666Y-88909380D01*
X247792190Y-88909380D01*
X247696952Y-88861761D01*
X247649333Y-88814142D01*
X247601714Y-88718904D01*
X247601714Y-88433190D01*
X247649333Y-88337952D01*
X247696952Y-88290333D01*
X247792190Y-88242714D01*
X247982666Y-88242714D01*
X248077904Y-88290333D01*
X248982666Y-88909380D02*
X248982666Y-88385571D01*
X248935047Y-88290333D01*
X248839809Y-88242714D01*
X248649333Y-88242714D01*
X248554095Y-88290333D01*
X248982666Y-88861761D02*
X248887428Y-88909380D01*
X248649333Y-88909380D01*
X248554095Y-88861761D01*
X248506476Y-88766523D01*
X248506476Y-88671285D01*
X248554095Y-88576047D01*
X248649333Y-88528428D01*
X248887428Y-88528428D01*
X248982666Y-88480809D01*
X249601714Y-88909380D02*
X249506476Y-88861761D01*
X249458857Y-88766523D01*
X249458857Y-87909380D01*
X239863619Y-90035571D02*
X239530285Y-90035571D01*
X239530285Y-90559380D02*
X239530285Y-89559380D01*
X240006476Y-89559380D01*
X240530285Y-90559380D02*
X240435047Y-90511761D01*
X240387428Y-90464142D01*
X240339809Y-90368904D01*
X240339809Y-90083190D01*
X240387428Y-89987952D01*
X240435047Y-89940333D01*
X240530285Y-89892714D01*
X240673142Y-89892714D01*
X240768380Y-89940333D01*
X240816000Y-89987952D01*
X240863619Y-90083190D01*
X240863619Y-90368904D01*
X240816000Y-90464142D01*
X240768380Y-90511761D01*
X240673142Y-90559380D01*
X240530285Y-90559380D01*
X241292190Y-90559380D02*
X241292190Y-89892714D01*
X241292190Y-90083190D02*
X241339809Y-89987952D01*
X241387428Y-89940333D01*
X241482666Y-89892714D01*
X241577904Y-89892714D01*
X242958857Y-89559380D02*
X242958857Y-90273666D01*
X242911238Y-90416523D01*
X242816000Y-90511761D01*
X242673142Y-90559380D01*
X242577904Y-90559380D01*
X243435047Y-90559380D02*
X243435047Y-89559380D01*
X243673142Y-89559380D01*
X243816000Y-89607000D01*
X243911238Y-89702238D01*
X243958857Y-89797476D01*
X244006476Y-89987952D01*
X244006476Y-90130809D01*
X243958857Y-90321285D01*
X243911238Y-90416523D01*
X243816000Y-90511761D01*
X243673142Y-90559380D01*
X243435047Y-90559380D01*
X244435047Y-90559380D02*
X244435047Y-89559380D01*
X244768380Y-90273666D01*
X245101714Y-89559380D01*
X245101714Y-90559380D01*
X237458857Y-91304619D02*
X237506476Y-91257000D01*
X237601714Y-91209380D01*
X237839809Y-91209380D01*
X237935047Y-91257000D01*
X237982666Y-91304619D01*
X238030285Y-91399857D01*
X238030285Y-91495095D01*
X237982666Y-91637952D01*
X237411238Y-92209380D01*
X238030285Y-92209380D01*
X238649333Y-91209380D02*
X238744571Y-91209380D01*
X238839809Y-91257000D01*
X238887428Y-91304619D01*
X238935047Y-91399857D01*
X238982666Y-91590333D01*
X238982666Y-91828428D01*
X238935047Y-92018904D01*
X238887428Y-92114142D01*
X238839809Y-92161761D01*
X238744571Y-92209380D01*
X238649333Y-92209380D01*
X238554095Y-92161761D01*
X238506476Y-92114142D01*
X238458857Y-92018904D01*
X238411238Y-91828428D01*
X238411238Y-91590333D01*
X238458857Y-91399857D01*
X238506476Y-91304619D01*
X238554095Y-91257000D01*
X238649333Y-91209380D01*
X239363619Y-91304619D02*
X239411238Y-91257000D01*
X239506476Y-91209380D01*
X239744571Y-91209380D01*
X239839809Y-91257000D01*
X239887428Y-91304619D01*
X239935047Y-91399857D01*
X239935047Y-91495095D01*
X239887428Y-91637952D01*
X239316000Y-92209380D01*
X239935047Y-92209380D01*
X240887428Y-92209380D02*
X240316000Y-92209380D01*
X240601714Y-92209380D02*
X240601714Y-91209380D01*
X240506476Y-91352238D01*
X240411238Y-91447476D01*
X240316000Y-91495095D01*
X241316000Y-91828428D02*
X242077904Y-91828428D01*
X242744571Y-91209380D02*
X242839809Y-91209380D01*
X242935047Y-91257000D01*
X242982666Y-91304619D01*
X243030285Y-91399857D01*
X243077904Y-91590333D01*
X243077904Y-91828428D01*
X243030285Y-92018904D01*
X242982666Y-92114142D01*
X242935047Y-92161761D01*
X242839809Y-92209380D01*
X242744571Y-92209380D01*
X242649333Y-92161761D01*
X242601714Y-92114142D01*
X242554095Y-92018904D01*
X242506476Y-91828428D01*
X242506476Y-91590333D01*
X242554095Y-91399857D01*
X242601714Y-91304619D01*
X242649333Y-91257000D01*
X242744571Y-91209380D01*
X243411238Y-91209380D02*
X244077904Y-91209380D01*
X243649333Y-92209380D01*
X244458857Y-91828428D02*
X245220761Y-91828428D01*
X246220761Y-92209380D02*
X245649333Y-92209380D01*
X245935047Y-92209380D02*
X245935047Y-91209380D01*
X245839809Y-91352238D01*
X245744571Y-91447476D01*
X245649333Y-91495095D01*
X246601714Y-91304619D02*
X246649333Y-91257000D01*
X246744571Y-91209380D01*
X246982666Y-91209380D01*
X247077904Y-91257000D01*
X247125523Y-91304619D01*
X247173142Y-91399857D01*
X247173142Y-91495095D01*
X247125523Y-91637952D01*
X246554095Y-92209380D01*
X247173142Y-92209380D01*
X241506476Y-92859380D02*
X241839809Y-93859380D01*
X242173142Y-92859380D01*
X243030285Y-93859380D02*
X242458857Y-93859380D01*
X242744571Y-93859380D02*
X242744571Y-92859380D01*
X242649333Y-93002238D01*
X242554095Y-93097476D01*
X242458857Y-93145095D01*
X164846095Y-98052000D02*
X164750857Y-98004380D01*
X164608000Y-98004380D01*
X164465142Y-98052000D01*
X164369904Y-98147238D01*
X164322285Y-98242476D01*
X164274666Y-98432952D01*
X164274666Y-98575809D01*
X164322285Y-98766285D01*
X164369904Y-98861523D01*
X164465142Y-98956761D01*
X164608000Y-99004380D01*
X164703238Y-99004380D01*
X164846095Y-98956761D01*
X164893714Y-98909142D01*
X164893714Y-98575809D01*
X164703238Y-98575809D01*
X165322285Y-99004380D02*
X165322285Y-98004380D01*
X165893714Y-99004380D01*
X165893714Y-98004380D01*
X166369904Y-99004380D02*
X166369904Y-98004380D01*
X166608000Y-98004380D01*
X166750857Y-98052000D01*
X166846095Y-98147238D01*
X166893714Y-98242476D01*
X166941333Y-98432952D01*
X166941333Y-98575809D01*
X166893714Y-98766285D01*
X166846095Y-98861523D01*
X166750857Y-98956761D01*
X166608000Y-99004380D01*
X166369904Y-99004380D01*
X129000476Y-49982380D02*
X129000476Y-48982380D01*
X129381428Y-48982380D01*
X129476666Y-49030000D01*
X129524285Y-49077619D01*
X129571904Y-49172857D01*
X129571904Y-49315714D01*
X129524285Y-49410952D01*
X129476666Y-49458571D01*
X129381428Y-49506190D01*
X129000476Y-49506190D01*
X130000476Y-49982380D02*
X130000476Y-49315714D01*
X130000476Y-48982380D02*
X129952857Y-49030000D01*
X130000476Y-49077619D01*
X130048095Y-49030000D01*
X130000476Y-48982380D01*
X130000476Y-49077619D01*
X130476666Y-49315714D02*
X130476666Y-49982380D01*
X130476666Y-49410952D02*
X130524285Y-49363333D01*
X130619523Y-49315714D01*
X130762380Y-49315714D01*
X130857619Y-49363333D01*
X130905238Y-49458571D01*
X130905238Y-49982380D01*
X132667142Y-49982380D02*
X132095714Y-49982380D01*
X132381428Y-49982380D02*
X132381428Y-48982380D01*
X132286190Y-49125238D01*
X132190952Y-49220476D01*
X132095714Y-49268095D01*
X174720476Y-49982380D02*
X174720476Y-48982380D01*
X175101428Y-48982380D01*
X175196666Y-49030000D01*
X175244285Y-49077619D01*
X175291904Y-49172857D01*
X175291904Y-49315714D01*
X175244285Y-49410952D01*
X175196666Y-49458571D01*
X175101428Y-49506190D01*
X174720476Y-49506190D01*
X175720476Y-49982380D02*
X175720476Y-49315714D01*
X175720476Y-48982380D02*
X175672857Y-49030000D01*
X175720476Y-49077619D01*
X175768095Y-49030000D01*
X175720476Y-48982380D01*
X175720476Y-49077619D01*
X176196666Y-49315714D02*
X176196666Y-49982380D01*
X176196666Y-49410952D02*
X176244285Y-49363333D01*
X176339523Y-49315714D01*
X176482380Y-49315714D01*
X176577619Y-49363333D01*
X176625238Y-49458571D01*
X176625238Y-49982380D01*
X178387142Y-49982380D02*
X177815714Y-49982380D01*
X178101428Y-49982380D02*
X178101428Y-48982380D01*
X178006190Y-49125238D01*
X177910952Y-49220476D01*
X177815714Y-49268095D01*
X237998095Y-102370000D02*
X237902857Y-102322380D01*
X237760000Y-102322380D01*
X237617142Y-102370000D01*
X237521904Y-102465238D01*
X237474285Y-102560476D01*
X237426666Y-102750952D01*
X237426666Y-102893809D01*
X237474285Y-103084285D01*
X237521904Y-103179523D01*
X237617142Y-103274761D01*
X237760000Y-103322380D01*
X237855238Y-103322380D01*
X237998095Y-103274761D01*
X238045714Y-103227142D01*
X238045714Y-102893809D01*
X237855238Y-102893809D01*
X238474285Y-103322380D02*
X238474285Y-102322380D01*
X239045714Y-103322380D01*
X239045714Y-102322380D01*
X239521904Y-103322380D02*
X239521904Y-102322380D01*
X239760000Y-102322380D01*
X239902857Y-102370000D01*
X239998095Y-102465238D01*
X240045714Y-102560476D01*
X240093333Y-102750952D01*
X240093333Y-102893809D01*
X240045714Y-103084285D01*
X239998095Y-103179523D01*
X239902857Y-103274761D01*
X239760000Y-103322380D01*
X239521904Y-103322380D01*
X203708095Y-120658000D02*
X203612857Y-120610380D01*
X203470000Y-120610380D01*
X203327142Y-120658000D01*
X203231904Y-120753238D01*
X203184285Y-120848476D01*
X203136666Y-121038952D01*
X203136666Y-121181809D01*
X203184285Y-121372285D01*
X203231904Y-121467523D01*
X203327142Y-121562761D01*
X203470000Y-121610380D01*
X203565238Y-121610380D01*
X203708095Y-121562761D01*
X203755714Y-121515142D01*
X203755714Y-121181809D01*
X203565238Y-121181809D01*
X204184285Y-121610380D02*
X204184285Y-120610380D01*
X204755714Y-121610380D01*
X204755714Y-120610380D01*
X205231904Y-121610380D02*
X205231904Y-120610380D01*
X205470000Y-120610380D01*
X205612857Y-120658000D01*
X205708095Y-120753238D01*
X205755714Y-120848476D01*
X205803333Y-121038952D01*
X205803333Y-121181809D01*
X205755714Y-121372285D01*
X205708095Y-121467523D01*
X205612857Y-121562761D01*
X205470000Y-121610380D01*
X205231904Y-121610380D01*
X155448095Y-115070000D02*
X155352857Y-115022380D01*
X155210000Y-115022380D01*
X155067142Y-115070000D01*
X154971904Y-115165238D01*
X154924285Y-115260476D01*
X154876666Y-115450952D01*
X154876666Y-115593809D01*
X154924285Y-115784285D01*
X154971904Y-115879523D01*
X155067142Y-115974761D01*
X155210000Y-116022380D01*
X155305238Y-116022380D01*
X155448095Y-115974761D01*
X155495714Y-115927142D01*
X155495714Y-115593809D01*
X155305238Y-115593809D01*
X155924285Y-116022380D02*
X155924285Y-115022380D01*
X156495714Y-116022380D01*
X156495714Y-115022380D01*
X156971904Y-116022380D02*
X156971904Y-115022380D01*
X157210000Y-115022380D01*
X157352857Y-115070000D01*
X157448095Y-115165238D01*
X157495714Y-115260476D01*
X157543333Y-115450952D01*
X157543333Y-115593809D01*
X157495714Y-115784285D01*
X157448095Y-115879523D01*
X157352857Y-115974761D01*
X157210000Y-116022380D01*
X156971904Y-116022380D01*
D12*
%TO.C,Beagle Header*%
X134426000Y-92142000D02*
X129226000Y-92142000D01*
X134426000Y-102362000D02*
X134426000Y-92142000D01*
X129226000Y-104962000D02*
X129226000Y-92142000D01*
X134426000Y-102362000D02*
X131826000Y-102362000D01*
X131826000Y-102362000D02*
X131826000Y-104962000D01*
X131826000Y-104962000D02*
X129226000Y-104962000D01*
X134426000Y-103632000D02*
X134426000Y-104962000D01*
X134426000Y-104962000D02*
X133096000Y-104962000D01*
%TO.C,ThermInBNC*%
X248532000Y-46482000D02*
X263532000Y-46482000D01*
X263532000Y-46482000D02*
X263532000Y-61482000D01*
X263532000Y-61482000D02*
X248532000Y-61482000D01*
X248532000Y-61482000D02*
X248532000Y-46482000D01*
X256032000Y-46682000D02*
X255032000Y-47682000D01*
X256032000Y-46682000D02*
X257032000Y-47682000D01*
%TO.C,SW1*%
X160722000Y-104962000D02*
X163382000Y-104962000D01*
X160722000Y-99822000D02*
X160722000Y-104962000D01*
X163382000Y-99822000D02*
X163382000Y-104962000D01*
X160722000Y-99822000D02*
X163382000Y-99822000D01*
X160722000Y-98552000D02*
X160722000Y-97222000D01*
X160722000Y-97222000D02*
X162052000Y-97222000D01*
%TO.C,CurrInBNC*%
X219322000Y-46482000D02*
X234322000Y-46482000D01*
X234322000Y-46482000D02*
X234322000Y-61482000D01*
X234322000Y-61482000D02*
X219322000Y-61482000D01*
X219322000Y-61482000D02*
X219322000Y-46482000D01*
X226822000Y-46682000D02*
X225822000Y-47682000D01*
X226822000Y-46682000D02*
X227822000Y-47682000D01*
%TO.C,CurrOutBNC*%
X115824000Y-46682000D02*
X116824000Y-47682000D01*
X115824000Y-46682000D02*
X114824000Y-47682000D01*
X108324000Y-61482000D02*
X108324000Y-46482000D01*
X123324000Y-61482000D02*
X108324000Y-61482000D01*
X123324000Y-46482000D02*
X123324000Y-61482000D01*
X108324000Y-46482000D02*
X123324000Y-46482000D01*
%TO.C,QWIIK LCD*%
X234696000Y-101540000D02*
X236026000Y-101540000D01*
X236026000Y-101540000D02*
X236026000Y-102870000D01*
X236026000Y-104140000D02*
X236026000Y-111820000D01*
X233366000Y-111820000D02*
X236026000Y-111820000D01*
X233366000Y-104140000D02*
X233366000Y-111820000D01*
X233366000Y-104140000D02*
X236026000Y-104140000D01*
%TO.C,Pico2*%
X199390000Y-48200000D02*
X200720000Y-48200000D01*
X200720000Y-48200000D02*
X200720000Y-49530000D01*
X200720000Y-50800000D02*
X200720000Y-99120000D01*
X198060000Y-99120000D02*
X200720000Y-99120000D01*
X198060000Y-50800000D02*
X198060000Y-99120000D01*
X198060000Y-50800000D02*
X200720000Y-50800000D01*
%TO.C,Pico1*%
X181610000Y-48200000D02*
X182940000Y-48200000D01*
X182940000Y-48200000D02*
X182940000Y-49530000D01*
X182940000Y-50800000D02*
X182940000Y-99120000D01*
X180280000Y-99120000D02*
X182940000Y-99120000D01*
X180280000Y-50800000D02*
X180280000Y-99120000D01*
X180280000Y-50800000D02*
X182940000Y-50800000D01*
%TO.C,ETH2*%
X156210000Y-49470000D02*
X157540000Y-49470000D01*
X157540000Y-49470000D02*
X157540000Y-50800000D01*
X157540000Y-52070000D02*
X157540000Y-64830000D01*
X154880000Y-64830000D02*
X157540000Y-64830000D01*
X154880000Y-52070000D02*
X154880000Y-64830000D01*
X154880000Y-52070000D02*
X157540000Y-52070000D01*
%TO.C,ETH1*%
X135890000Y-49470000D02*
X137220000Y-49470000D01*
X137220000Y-49470000D02*
X137220000Y-50800000D01*
X137220000Y-52070000D02*
X137220000Y-64830000D01*
X134560000Y-64830000D02*
X137220000Y-64830000D01*
X134560000Y-52070000D02*
X134560000Y-64830000D01*
X134560000Y-52070000D02*
X137220000Y-52070000D01*
%TO.C,ADS*%
X208340000Y-118110000D02*
X208340000Y-119440000D01*
X208340000Y-119440000D02*
X207010000Y-119440000D01*
X205740000Y-119440000D02*
X182820000Y-119440000D01*
X182820000Y-116780000D02*
X182820000Y-119440000D01*
X205740000Y-116780000D02*
X182820000Y-116780000D01*
X205740000Y-116780000D02*
X205740000Y-119440000D01*
%TO.C,DAC*%
X154880000Y-118110000D02*
X154880000Y-116780000D01*
X154880000Y-116780000D02*
X156210000Y-116780000D01*
X157480000Y-116780000D02*
X170240000Y-116780000D01*
X170240000Y-119440000D02*
X170240000Y-116780000D01*
X157480000Y-119440000D02*
X170240000Y-119440000D01*
X157480000Y-119440000D02*
X157480000Y-116780000D01*
%TO.C,Beagle Header*%
D10*
X127151428Y-107370571D02*
X127294285Y-107418190D01*
X127341904Y-107465809D01*
X127389523Y-107561047D01*
X127389523Y-107703904D01*
X127341904Y-107799142D01*
X127294285Y-107846761D01*
X127199047Y-107894380D01*
X126818095Y-107894380D01*
X126818095Y-106894380D01*
X127151428Y-106894380D01*
X127246666Y-106942000D01*
X127294285Y-106989619D01*
X127341904Y-107084857D01*
X127341904Y-107180095D01*
X127294285Y-107275333D01*
X127246666Y-107322952D01*
X127151428Y-107370571D01*
X126818095Y-107370571D01*
X128199047Y-107846761D02*
X128103809Y-107894380D01*
X127913333Y-107894380D01*
X127818095Y-107846761D01*
X127770476Y-107751523D01*
X127770476Y-107370571D01*
X127818095Y-107275333D01*
X127913333Y-107227714D01*
X128103809Y-107227714D01*
X128199047Y-107275333D01*
X128246666Y-107370571D01*
X128246666Y-107465809D01*
X127770476Y-107561047D01*
X129103809Y-107894380D02*
X129103809Y-107370571D01*
X129056190Y-107275333D01*
X128960952Y-107227714D01*
X128770476Y-107227714D01*
X128675238Y-107275333D01*
X129103809Y-107846761D02*
X129008571Y-107894380D01*
X128770476Y-107894380D01*
X128675238Y-107846761D01*
X128627619Y-107751523D01*
X128627619Y-107656285D01*
X128675238Y-107561047D01*
X128770476Y-107513428D01*
X129008571Y-107513428D01*
X129103809Y-107465809D01*
X130008571Y-107227714D02*
X130008571Y-108037238D01*
X129960952Y-108132476D01*
X129913333Y-108180095D01*
X129818095Y-108227714D01*
X129675238Y-108227714D01*
X129580000Y-108180095D01*
X130008571Y-107846761D02*
X129913333Y-107894380D01*
X129722857Y-107894380D01*
X129627619Y-107846761D01*
X129580000Y-107799142D01*
X129532380Y-107703904D01*
X129532380Y-107418190D01*
X129580000Y-107322952D01*
X129627619Y-107275333D01*
X129722857Y-107227714D01*
X129913333Y-107227714D01*
X130008571Y-107275333D01*
X130627619Y-107894380D02*
X130532380Y-107846761D01*
X130484761Y-107751523D01*
X130484761Y-106894380D01*
X131389523Y-107846761D02*
X131294285Y-107894380D01*
X131103809Y-107894380D01*
X131008571Y-107846761D01*
X130960952Y-107751523D01*
X130960952Y-107370571D01*
X131008571Y-107275333D01*
X131103809Y-107227714D01*
X131294285Y-107227714D01*
X131389523Y-107275333D01*
X131437142Y-107370571D01*
X131437142Y-107465809D01*
X130960952Y-107561047D01*
X132627619Y-107894380D02*
X132627619Y-106894380D01*
X132627619Y-107370571D02*
X133199047Y-107370571D01*
X133199047Y-107894380D02*
X133199047Y-106894380D01*
X134056190Y-107846761D02*
X133960952Y-107894380D01*
X133770476Y-107894380D01*
X133675238Y-107846761D01*
X133627619Y-107751523D01*
X133627619Y-107370571D01*
X133675238Y-107275333D01*
X133770476Y-107227714D01*
X133960952Y-107227714D01*
X134056190Y-107275333D01*
X134103809Y-107370571D01*
X134103809Y-107465809D01*
X133627619Y-107561047D01*
X134960952Y-107894380D02*
X134960952Y-107370571D01*
X134913333Y-107275333D01*
X134818095Y-107227714D01*
X134627619Y-107227714D01*
X134532380Y-107275333D01*
X134960952Y-107846761D02*
X134865714Y-107894380D01*
X134627619Y-107894380D01*
X134532380Y-107846761D01*
X134484761Y-107751523D01*
X134484761Y-107656285D01*
X134532380Y-107561047D01*
X134627619Y-107513428D01*
X134865714Y-107513428D01*
X134960952Y-107465809D01*
X135865714Y-107894380D02*
X135865714Y-106894380D01*
X135865714Y-107846761D02*
X135770476Y-107894380D01*
X135580000Y-107894380D01*
X135484761Y-107846761D01*
X135437142Y-107799142D01*
X135389523Y-107703904D01*
X135389523Y-107418190D01*
X135437142Y-107322952D01*
X135484761Y-107275333D01*
X135580000Y-107227714D01*
X135770476Y-107227714D01*
X135865714Y-107275333D01*
X136722857Y-107846761D02*
X136627619Y-107894380D01*
X136437142Y-107894380D01*
X136341904Y-107846761D01*
X136294285Y-107751523D01*
X136294285Y-107370571D01*
X136341904Y-107275333D01*
X136437142Y-107227714D01*
X136627619Y-107227714D01*
X136722857Y-107275333D01*
X136770476Y-107370571D01*
X136770476Y-107465809D01*
X136294285Y-107561047D01*
X137199047Y-107894380D02*
X137199047Y-107227714D01*
X137199047Y-107418190D02*
X137246666Y-107322952D01*
X137294285Y-107275333D01*
X137389523Y-107227714D01*
X137484761Y-107227714D01*
%TO.C,ThermInBNC*%
X251674857Y-62634380D02*
X252246285Y-62634380D01*
X251960571Y-63634380D02*
X251960571Y-62634380D01*
X252579619Y-63634380D02*
X252579619Y-62634380D01*
X253008190Y-63634380D02*
X253008190Y-63110571D01*
X252960571Y-63015333D01*
X252865333Y-62967714D01*
X252722476Y-62967714D01*
X252627238Y-63015333D01*
X252579619Y-63062952D01*
X253865333Y-63586761D02*
X253770095Y-63634380D01*
X253579619Y-63634380D01*
X253484380Y-63586761D01*
X253436761Y-63491523D01*
X253436761Y-63110571D01*
X253484380Y-63015333D01*
X253579619Y-62967714D01*
X253770095Y-62967714D01*
X253865333Y-63015333D01*
X253912952Y-63110571D01*
X253912952Y-63205809D01*
X253436761Y-63301047D01*
X254341523Y-63634380D02*
X254341523Y-62967714D01*
X254341523Y-63158190D02*
X254389142Y-63062952D01*
X254436761Y-63015333D01*
X254532000Y-62967714D01*
X254627238Y-62967714D01*
X254960571Y-63634380D02*
X254960571Y-62967714D01*
X254960571Y-63062952D02*
X255008190Y-63015333D01*
X255103428Y-62967714D01*
X255246285Y-62967714D01*
X255341523Y-63015333D01*
X255389142Y-63110571D01*
X255389142Y-63634380D01*
X255389142Y-63110571D02*
X255436761Y-63015333D01*
X255532000Y-62967714D01*
X255674857Y-62967714D01*
X255770095Y-63015333D01*
X255817714Y-63110571D01*
X255817714Y-63634380D01*
X256293904Y-63634380D02*
X256293904Y-62634380D01*
X256770095Y-62967714D02*
X256770095Y-63634380D01*
X256770095Y-63062952D02*
X256817714Y-63015333D01*
X256912952Y-62967714D01*
X257055809Y-62967714D01*
X257151047Y-63015333D01*
X257198666Y-63110571D01*
X257198666Y-63634380D01*
X258008190Y-63110571D02*
X258151047Y-63158190D01*
X258198666Y-63205809D01*
X258246285Y-63301047D01*
X258246285Y-63443904D01*
X258198666Y-63539142D01*
X258151047Y-63586761D01*
X258055809Y-63634380D01*
X257674857Y-63634380D01*
X257674857Y-62634380D01*
X258008190Y-62634380D01*
X258103428Y-62682000D01*
X258151047Y-62729619D01*
X258198666Y-62824857D01*
X258198666Y-62920095D01*
X258151047Y-63015333D01*
X258103428Y-63062952D01*
X258008190Y-63110571D01*
X257674857Y-63110571D01*
X258674857Y-63634380D02*
X258674857Y-62634380D01*
X259246285Y-63634380D01*
X259246285Y-62634380D01*
X260293904Y-63539142D02*
X260246285Y-63586761D01*
X260103428Y-63634380D01*
X260008190Y-63634380D01*
X259865333Y-63586761D01*
X259770095Y-63491523D01*
X259722476Y-63396285D01*
X259674857Y-63205809D01*
X259674857Y-63062952D01*
X259722476Y-62872476D01*
X259770095Y-62777238D01*
X259865333Y-62682000D01*
X260008190Y-62634380D01*
X260103428Y-62634380D01*
X260246285Y-62682000D01*
X260293904Y-62729619D01*
%TO.C,SW1*%
X160718666Y-96626761D02*
X160861523Y-96674380D01*
X161099619Y-96674380D01*
X161194857Y-96626761D01*
X161242476Y-96579142D01*
X161290095Y-96483904D01*
X161290095Y-96388666D01*
X161242476Y-96293428D01*
X161194857Y-96245809D01*
X161099619Y-96198190D01*
X160909142Y-96150571D01*
X160813904Y-96102952D01*
X160766285Y-96055333D01*
X160718666Y-95960095D01*
X160718666Y-95864857D01*
X160766285Y-95769619D01*
X160813904Y-95722000D01*
X160909142Y-95674380D01*
X161147238Y-95674380D01*
X161290095Y-95722000D01*
X161623428Y-95674380D02*
X161861523Y-96674380D01*
X162052000Y-95960095D01*
X162242476Y-96674380D01*
X162480571Y-95674380D01*
X163385333Y-96674380D02*
X162813904Y-96674380D01*
X163099619Y-96674380D02*
X163099619Y-95674380D01*
X163004380Y-95817238D01*
X162909142Y-95912476D01*
X162813904Y-95960095D01*
%TO.C,CurrInBNC*%
X223845809Y-63539142D02*
X223798190Y-63586761D01*
X223655333Y-63634380D01*
X223560095Y-63634380D01*
X223417238Y-63586761D01*
X223322000Y-63491523D01*
X223274380Y-63396285D01*
X223226761Y-63205809D01*
X223226761Y-63062952D01*
X223274380Y-62872476D01*
X223322000Y-62777238D01*
X223417238Y-62682000D01*
X223560095Y-62634380D01*
X223655333Y-62634380D01*
X223798190Y-62682000D01*
X223845809Y-62729619D01*
X224702952Y-62967714D02*
X224702952Y-63634380D01*
X224274380Y-62967714D02*
X224274380Y-63491523D01*
X224322000Y-63586761D01*
X224417238Y-63634380D01*
X224560095Y-63634380D01*
X224655333Y-63586761D01*
X224702952Y-63539142D01*
X225179142Y-63634380D02*
X225179142Y-62967714D01*
X225179142Y-63158190D02*
X225226761Y-63062952D01*
X225274380Y-63015333D01*
X225369619Y-62967714D01*
X225464857Y-62967714D01*
X225798190Y-63634380D02*
X225798190Y-62967714D01*
X225798190Y-63158190D02*
X225845809Y-63062952D01*
X225893428Y-63015333D01*
X225988666Y-62967714D01*
X226083904Y-62967714D01*
X226417238Y-63634380D02*
X226417238Y-62634380D01*
X226893428Y-62967714D02*
X226893428Y-63634380D01*
X226893428Y-63062952D02*
X226941047Y-63015333D01*
X227036285Y-62967714D01*
X227179142Y-62967714D01*
X227274380Y-63015333D01*
X227322000Y-63110571D01*
X227322000Y-63634380D01*
X228131523Y-63110571D02*
X228274380Y-63158190D01*
X228322000Y-63205809D01*
X228369619Y-63301047D01*
X228369619Y-63443904D01*
X228322000Y-63539142D01*
X228274380Y-63586761D01*
X228179142Y-63634380D01*
X227798190Y-63634380D01*
X227798190Y-62634380D01*
X228131523Y-62634380D01*
X228226761Y-62682000D01*
X228274380Y-62729619D01*
X228322000Y-62824857D01*
X228322000Y-62920095D01*
X228274380Y-63015333D01*
X228226761Y-63062952D01*
X228131523Y-63110571D01*
X227798190Y-63110571D01*
X228798190Y-63634380D02*
X228798190Y-62634380D01*
X229369619Y-63634380D01*
X229369619Y-62634380D01*
X230417238Y-63539142D02*
X230369619Y-63586761D01*
X230226761Y-63634380D01*
X230131523Y-63634380D01*
X229988666Y-63586761D01*
X229893428Y-63491523D01*
X229845809Y-63396285D01*
X229798190Y-63205809D01*
X229798190Y-63062952D01*
X229845809Y-62872476D01*
X229893428Y-62777238D01*
X229988666Y-62682000D01*
X230131523Y-62634380D01*
X230226761Y-62634380D01*
X230369619Y-62682000D01*
X230417238Y-62729619D01*
%TO.C,CurrOutBNC*%
X112276380Y-63539142D02*
X112228761Y-63586761D01*
X112085904Y-63634380D01*
X111990666Y-63634380D01*
X111847809Y-63586761D01*
X111752571Y-63491523D01*
X111704952Y-63396285D01*
X111657333Y-63205809D01*
X111657333Y-63062952D01*
X111704952Y-62872476D01*
X111752571Y-62777238D01*
X111847809Y-62682000D01*
X111990666Y-62634380D01*
X112085904Y-62634380D01*
X112228761Y-62682000D01*
X112276380Y-62729619D01*
X113133523Y-62967714D02*
X113133523Y-63634380D01*
X112704952Y-62967714D02*
X112704952Y-63491523D01*
X112752571Y-63586761D01*
X112847809Y-63634380D01*
X112990666Y-63634380D01*
X113085904Y-63586761D01*
X113133523Y-63539142D01*
X113609714Y-63634380D02*
X113609714Y-62967714D01*
X113609714Y-63158190D02*
X113657333Y-63062952D01*
X113704952Y-63015333D01*
X113800190Y-62967714D01*
X113895428Y-62967714D01*
X114228761Y-63634380D02*
X114228761Y-62967714D01*
X114228761Y-63158190D02*
X114276380Y-63062952D01*
X114324000Y-63015333D01*
X114419238Y-62967714D01*
X114514476Y-62967714D01*
X115038285Y-62634380D02*
X115228761Y-62634380D01*
X115324000Y-62682000D01*
X115419238Y-62777238D01*
X115466857Y-62967714D01*
X115466857Y-63301047D01*
X115419238Y-63491523D01*
X115324000Y-63586761D01*
X115228761Y-63634380D01*
X115038285Y-63634380D01*
X114943047Y-63586761D01*
X114847809Y-63491523D01*
X114800190Y-63301047D01*
X114800190Y-62967714D01*
X114847809Y-62777238D01*
X114943047Y-62682000D01*
X115038285Y-62634380D01*
X116324000Y-62967714D02*
X116324000Y-63634380D01*
X115895428Y-62967714D02*
X115895428Y-63491523D01*
X115943047Y-63586761D01*
X116038285Y-63634380D01*
X116181142Y-63634380D01*
X116276380Y-63586761D01*
X116324000Y-63539142D01*
X116657333Y-62967714D02*
X117038285Y-62967714D01*
X116800190Y-62634380D02*
X116800190Y-63491523D01*
X116847809Y-63586761D01*
X116943047Y-63634380D01*
X117038285Y-63634380D01*
X117704952Y-63110571D02*
X117847809Y-63158190D01*
X117895428Y-63205809D01*
X117943047Y-63301047D01*
X117943047Y-63443904D01*
X117895428Y-63539142D01*
X117847809Y-63586761D01*
X117752571Y-63634380D01*
X117371619Y-63634380D01*
X117371619Y-62634380D01*
X117704952Y-62634380D01*
X117800190Y-62682000D01*
X117847809Y-62729619D01*
X117895428Y-62824857D01*
X117895428Y-62920095D01*
X117847809Y-63015333D01*
X117800190Y-63062952D01*
X117704952Y-63110571D01*
X117371619Y-63110571D01*
X118371619Y-63634380D02*
X118371619Y-62634380D01*
X118943047Y-63634380D01*
X118943047Y-62634380D01*
X119990666Y-63539142D02*
X119943047Y-63586761D01*
X119800190Y-63634380D01*
X119704952Y-63634380D01*
X119562095Y-63586761D01*
X119466857Y-63491523D01*
X119419238Y-63396285D01*
X119371619Y-63205809D01*
X119371619Y-63062952D01*
X119419238Y-62872476D01*
X119466857Y-62777238D01*
X119562095Y-62682000D01*
X119704952Y-62634380D01*
X119800190Y-62634380D01*
X119943047Y-62682000D01*
X119990666Y-62729619D01*
%TO.C,QWIIK LCD*%
X232759619Y-100115619D02*
X232664380Y-100068000D01*
X232569142Y-99972761D01*
X232426285Y-99829904D01*
X232331047Y-99782285D01*
X232235809Y-99782285D01*
X232283428Y-100020380D02*
X232188190Y-99972761D01*
X232092952Y-99877523D01*
X232045333Y-99687047D01*
X232045333Y-99353714D01*
X232092952Y-99163238D01*
X232188190Y-99068000D01*
X232283428Y-99020380D01*
X232473904Y-99020380D01*
X232569142Y-99068000D01*
X232664380Y-99163238D01*
X232712000Y-99353714D01*
X232712000Y-99687047D01*
X232664380Y-99877523D01*
X232569142Y-99972761D01*
X232473904Y-100020380D01*
X232283428Y-100020380D01*
X233045333Y-99020380D02*
X233283428Y-100020380D01*
X233473904Y-99306095D01*
X233664380Y-100020380D01*
X233902476Y-99020380D01*
X234283428Y-100020380D02*
X234283428Y-99020380D01*
X234759619Y-100020380D02*
X234759619Y-99020380D01*
X235235809Y-100020380D02*
X235235809Y-99020380D01*
X235807238Y-100020380D02*
X235378666Y-99448952D01*
X235807238Y-99020380D02*
X235235809Y-99591809D01*
X237473904Y-100020380D02*
X236997714Y-100020380D01*
X236997714Y-99020380D01*
X238378666Y-99925142D02*
X238331047Y-99972761D01*
X238188190Y-100020380D01*
X238092952Y-100020380D01*
X237950095Y-99972761D01*
X237854857Y-99877523D01*
X237807238Y-99782285D01*
X237759619Y-99591809D01*
X237759619Y-99448952D01*
X237807238Y-99258476D01*
X237854857Y-99163238D01*
X237950095Y-99068000D01*
X238092952Y-99020380D01*
X238188190Y-99020380D01*
X238331047Y-99068000D01*
X238378666Y-99115619D01*
X238807238Y-100020380D02*
X238807238Y-99020380D01*
X239045333Y-99020380D01*
X239188190Y-99068000D01*
X239283428Y-99163238D01*
X239331047Y-99258476D01*
X239378666Y-99448952D01*
X239378666Y-99591809D01*
X239331047Y-99782285D01*
X239283428Y-99877523D01*
X239188190Y-99972761D01*
X239045333Y-100020380D01*
X238807238Y-100020380D01*
%TO.C,Pico2*%
X197532857Y-47212380D02*
X197532857Y-46212380D01*
X197913809Y-46212380D01*
X198009047Y-46260000D01*
X198056666Y-46307619D01*
X198104285Y-46402857D01*
X198104285Y-46545714D01*
X198056666Y-46640952D01*
X198009047Y-46688571D01*
X197913809Y-46736190D01*
X197532857Y-46736190D01*
X198532857Y-47212380D02*
X198532857Y-46545714D01*
X198532857Y-46212380D02*
X198485238Y-46260000D01*
X198532857Y-46307619D01*
X198580476Y-46260000D01*
X198532857Y-46212380D01*
X198532857Y-46307619D01*
X199437619Y-47164761D02*
X199342380Y-47212380D01*
X199151904Y-47212380D01*
X199056666Y-47164761D01*
X199009047Y-47117142D01*
X198961428Y-47021904D01*
X198961428Y-46736190D01*
X199009047Y-46640952D01*
X199056666Y-46593333D01*
X199151904Y-46545714D01*
X199342380Y-46545714D01*
X199437619Y-46593333D01*
X200009047Y-47212380D02*
X199913809Y-47164761D01*
X199866190Y-47117142D01*
X199818571Y-47021904D01*
X199818571Y-46736190D01*
X199866190Y-46640952D01*
X199913809Y-46593333D01*
X200009047Y-46545714D01*
X200151904Y-46545714D01*
X200247142Y-46593333D01*
X200294761Y-46640952D01*
X200342380Y-46736190D01*
X200342380Y-47021904D01*
X200294761Y-47117142D01*
X200247142Y-47164761D01*
X200151904Y-47212380D01*
X200009047Y-47212380D01*
X200723333Y-46307619D02*
X200770952Y-46260000D01*
X200866190Y-46212380D01*
X201104285Y-46212380D01*
X201199523Y-46260000D01*
X201247142Y-46307619D01*
X201294761Y-46402857D01*
X201294761Y-46498095D01*
X201247142Y-46640952D01*
X200675714Y-47212380D01*
X201294761Y-47212380D01*
%TO.C,Pico1*%
X179752857Y-47212380D02*
X179752857Y-46212380D01*
X180133809Y-46212380D01*
X180229047Y-46260000D01*
X180276666Y-46307619D01*
X180324285Y-46402857D01*
X180324285Y-46545714D01*
X180276666Y-46640952D01*
X180229047Y-46688571D01*
X180133809Y-46736190D01*
X179752857Y-46736190D01*
X180752857Y-47212380D02*
X180752857Y-46545714D01*
X180752857Y-46212380D02*
X180705238Y-46260000D01*
X180752857Y-46307619D01*
X180800476Y-46260000D01*
X180752857Y-46212380D01*
X180752857Y-46307619D01*
X181657619Y-47164761D02*
X181562380Y-47212380D01*
X181371904Y-47212380D01*
X181276666Y-47164761D01*
X181229047Y-47117142D01*
X181181428Y-47021904D01*
X181181428Y-46736190D01*
X181229047Y-46640952D01*
X181276666Y-46593333D01*
X181371904Y-46545714D01*
X181562380Y-46545714D01*
X181657619Y-46593333D01*
X182229047Y-47212380D02*
X182133809Y-47164761D01*
X182086190Y-47117142D01*
X182038571Y-47021904D01*
X182038571Y-46736190D01*
X182086190Y-46640952D01*
X182133809Y-46593333D01*
X182229047Y-46545714D01*
X182371904Y-46545714D01*
X182467142Y-46593333D01*
X182514761Y-46640952D01*
X182562380Y-46736190D01*
X182562380Y-47021904D01*
X182514761Y-47117142D01*
X182467142Y-47164761D01*
X182371904Y-47212380D01*
X182229047Y-47212380D01*
X183514761Y-47212380D02*
X182943333Y-47212380D01*
X183229047Y-47212380D02*
X183229047Y-46212380D01*
X183133809Y-46355238D01*
X183038571Y-46450476D01*
X182943333Y-46498095D01*
%TO.C,ETH2*%
X154614761Y-47958571D02*
X154948095Y-47958571D01*
X155090952Y-48482380D02*
X154614761Y-48482380D01*
X154614761Y-47482380D01*
X155090952Y-47482380D01*
X155376666Y-47482380D02*
X155948095Y-47482380D01*
X155662380Y-48482380D02*
X155662380Y-47482380D01*
X156281428Y-48482380D02*
X156281428Y-47482380D01*
X156281428Y-47958571D02*
X156852857Y-47958571D01*
X156852857Y-48482380D02*
X156852857Y-47482380D01*
X157281428Y-47577619D02*
X157329047Y-47530000D01*
X157424285Y-47482380D01*
X157662380Y-47482380D01*
X157757619Y-47530000D01*
X157805238Y-47577619D01*
X157852857Y-47672857D01*
X157852857Y-47768095D01*
X157805238Y-47910952D01*
X157233809Y-48482380D01*
X157852857Y-48482380D01*
%TO.C,ETH1*%
X134294761Y-47958571D02*
X134628095Y-47958571D01*
X134770952Y-48482380D02*
X134294761Y-48482380D01*
X134294761Y-47482380D01*
X134770952Y-47482380D01*
X135056666Y-47482380D02*
X135628095Y-47482380D01*
X135342380Y-48482380D02*
X135342380Y-47482380D01*
X135961428Y-48482380D02*
X135961428Y-47482380D01*
X135961428Y-47958571D02*
X136532857Y-47958571D01*
X136532857Y-48482380D02*
X136532857Y-47482380D01*
X137532857Y-48482380D02*
X136961428Y-48482380D01*
X137247142Y-48482380D02*
X137247142Y-47482380D01*
X137151904Y-47625238D01*
X137056666Y-47720476D01*
X136961428Y-47768095D01*
%TO.C,ADS*%
X209946666Y-119324285D02*
X209946666Y-118848095D01*
X210232380Y-119419523D02*
X209232380Y-119086190D01*
X210232380Y-118752857D01*
X210232380Y-118419523D02*
X209232380Y-118419523D01*
X209232380Y-118181428D01*
X209280000Y-118038571D01*
X209375238Y-117943333D01*
X209470476Y-117895714D01*
X209660952Y-117848095D01*
X209803809Y-117848095D01*
X209994285Y-117895714D01*
X210089523Y-117943333D01*
X210184761Y-118038571D01*
X210232380Y-118181428D01*
X210232380Y-118419523D01*
X210184761Y-117467142D02*
X210232380Y-117324285D01*
X210232380Y-117086190D01*
X210184761Y-116990952D01*
X210137142Y-116943333D01*
X210041904Y-116895714D01*
X209946666Y-116895714D01*
X209851428Y-116943333D01*
X209803809Y-116990952D01*
X209756190Y-117086190D01*
X209708571Y-117276666D01*
X209660952Y-117371904D01*
X209613333Y-117419523D01*
X209518095Y-117467142D01*
X209422857Y-117467142D01*
X209327619Y-117419523D01*
X209280000Y-117371904D01*
X209232380Y-117276666D01*
X209232380Y-117038571D01*
X209280000Y-116895714D01*
%TO.C,DAC*%
X153892380Y-119300476D02*
X152892380Y-119300476D01*
X152892380Y-119062380D01*
X152940000Y-118919523D01*
X153035238Y-118824285D01*
X153130476Y-118776666D01*
X153320952Y-118729047D01*
X153463809Y-118729047D01*
X153654285Y-118776666D01*
X153749523Y-118824285D01*
X153844761Y-118919523D01*
X153892380Y-119062380D01*
X153892380Y-119300476D01*
X153606666Y-118348095D02*
X153606666Y-117871904D01*
X153892380Y-118443333D02*
X152892380Y-118110000D01*
X153892380Y-117776666D01*
X153797142Y-116871904D02*
X153844761Y-116919523D01*
X153892380Y-117062380D01*
X153892380Y-117157619D01*
X153844761Y-117300476D01*
X153749523Y-117395714D01*
X153654285Y-117443333D01*
X153463809Y-117490952D01*
X153320952Y-117490952D01*
X153130476Y-117443333D01*
X153035238Y-117395714D01*
X152940000Y-117300476D01*
X152892380Y-117157619D01*
X152892380Y-117062380D01*
X152940000Y-116919523D01*
X152987619Y-116871904D01*
%TD*%
M02*
