%TF.GenerationSoftware,KiCad,Pcbnew,(5.1.10)-1*%
%TF.CreationDate,2021-07-09T13:20:10-04:00*%
%TF.ProjectId,PID-controller-pcb,5049442d-636f-46e7-9472-6f6c6c65722d,rev?*%
%TF.SameCoordinates,Original*%
%TF.FileFunction,Soldermask,Top*%
%TF.FilePolarity,Negative*%
%FSLAX46Y46*%
G04 Gerber Fmt 4.6, Leading zero omitted, Abs format (unit mm)*
G04 Created by KiCad (PCBNEW (5.1.10)-1) date 2021-07-09 13:20:10*
%MOMM*%
%LPD*%
G01*
G04 APERTURE LIST*
%ADD10O,1.700000X1.700000*%
%ADD11R,1.700000X1.700000*%
%ADD12C,3.200000*%
%ADD13O,1.600000X2.500000*%
%ADD14O,3.500000X7.000000*%
G04 APERTURE END LIST*
D10*
%TO.C,SW1*%
X162052000Y-103632000D03*
X162052000Y-101092000D03*
D11*
X162052000Y-98552000D03*
%TD*%
D12*
%TO.C,REF\u002A\u002A*%
X142240000Y-119634000D03*
%TD*%
%TO.C,REF\u002A\u002A*%
X257302000Y-119634000D03*
%TD*%
%TO.C,REF\u002A\u002A*%
X142240000Y-89662000D03*
%TD*%
%TO.C,REF\u002A\u002A*%
X257302000Y-89662000D03*
%TD*%
D13*
%TO.C,ThermInBNC*%
X257810000Y-59690000D03*
X260350000Y-59690000D03*
D14*
X265430000Y-54610000D03*
X255270000Y-54610000D03*
%TD*%
D13*
%TO.C,CurrInBNC*%
X237490000Y-59690000D03*
X240030000Y-59690000D03*
D14*
X245110000Y-54610000D03*
X234950000Y-54610000D03*
%TD*%
D13*
%TO.C,CurrOutBNC*%
X217170000Y-59690000D03*
X219710000Y-59690000D03*
D14*
X224790000Y-54610000D03*
X214630000Y-54610000D03*
%TD*%
D10*
%TO.C,QWIIK LCD*%
X234696000Y-110490000D03*
X234696000Y-107950000D03*
X234696000Y-105410000D03*
D11*
X234696000Y-102870000D03*
%TD*%
D10*
%TO.C,Pico2*%
X199390000Y-97790000D03*
X199390000Y-95250000D03*
X199390000Y-92710000D03*
X199390000Y-90170000D03*
X199390000Y-87630000D03*
X199390000Y-85090000D03*
X199390000Y-82550000D03*
X199390000Y-80010000D03*
X199390000Y-77470000D03*
X199390000Y-74930000D03*
X199390000Y-72390000D03*
X199390000Y-69850000D03*
X199390000Y-67310000D03*
X199390000Y-64770000D03*
X199390000Y-62230000D03*
X199390000Y-59690000D03*
X199390000Y-57150000D03*
X199390000Y-54610000D03*
X199390000Y-52070000D03*
D11*
X199390000Y-49530000D03*
%TD*%
D10*
%TO.C,Pico1*%
X181610000Y-97790000D03*
X181610000Y-95250000D03*
X181610000Y-92710000D03*
X181610000Y-90170000D03*
X181610000Y-87630000D03*
X181610000Y-85090000D03*
X181610000Y-82550000D03*
X181610000Y-80010000D03*
X181610000Y-77470000D03*
X181610000Y-74930000D03*
X181610000Y-72390000D03*
X181610000Y-69850000D03*
X181610000Y-67310000D03*
X181610000Y-64770000D03*
X181610000Y-62230000D03*
X181610000Y-59690000D03*
X181610000Y-57150000D03*
X181610000Y-54610000D03*
X181610000Y-52070000D03*
D11*
X181610000Y-49530000D03*
%TD*%
D10*
%TO.C,ETH2*%
X156210000Y-63500000D03*
X156210000Y-60960000D03*
X156210000Y-58420000D03*
X156210000Y-55880000D03*
X156210000Y-53340000D03*
D11*
X156210000Y-50800000D03*
%TD*%
D10*
%TO.C,ETH1*%
X135890000Y-63500000D03*
X135890000Y-60960000D03*
X135890000Y-58420000D03*
X135890000Y-55880000D03*
X135890000Y-53340000D03*
D11*
X135890000Y-50800000D03*
%TD*%
D10*
%TO.C,ADS*%
X184150000Y-118110000D03*
X186690000Y-118110000D03*
X189230000Y-118110000D03*
X191770000Y-118110000D03*
X194310000Y-118110000D03*
X196850000Y-118110000D03*
X199390000Y-118110000D03*
X201930000Y-118110000D03*
X204470000Y-118110000D03*
D11*
X207010000Y-118110000D03*
%TD*%
D10*
%TO.C,DAC*%
X168910000Y-118110000D03*
X166370000Y-118110000D03*
X163830000Y-118110000D03*
X161290000Y-118110000D03*
X158750000Y-118110000D03*
D11*
X156210000Y-118110000D03*
%TD*%
M02*
