%TF.GenerationSoftware,KiCad,Pcbnew,(5.1.10)-1*%
%TF.CreationDate,2021-08-03T15:20:21-04:00*%
%TF.ProjectId,PID-controller-pcb,5049442d-636f-46e7-9472-6f6c6c65722d,rev?*%
%TF.SameCoordinates,Original*%
%TF.FileFunction,Copper,L1,Top*%
%TF.FilePolarity,Positive*%
%FSLAX46Y46*%
G04 Gerber Fmt 4.6, Leading zero omitted, Abs format (unit mm)*
G04 Created by KiCad (PCBNEW (5.1.10)-1) date 2021-08-03 15:20:21*
%MOMM*%
%LPD*%
G01*
G04 APERTURE LIST*
%TA.AperFunction,ComponentPad*%
%ADD10O,1.700000X1.700000*%
%TD*%
%TA.AperFunction,ComponentPad*%
%ADD11R,1.700000X1.700000*%
%TD*%
%TA.AperFunction,ComponentPad*%
%ADD12O,3.500000X7.000000*%
%TD*%
%TA.AperFunction,ComponentPad*%
%ADD13O,1.600000X2.500000*%
%TD*%
%TA.AperFunction,ViaPad*%
%ADD14C,0.800000*%
%TD*%
%TA.AperFunction,Conductor*%
%ADD15C,0.250000*%
%TD*%
G04 APERTURE END LIST*
D10*
%TO.P,Pico1,20*%
%TO.N,N/C*%
X113792000Y-107442000D03*
%TO.P,Pico1,19*%
X116332000Y-107442000D03*
%TO.P,Pico1,18*%
X118872000Y-107442000D03*
%TO.P,Pico1,17*%
X121412000Y-107442000D03*
%TO.P,Pico1,16*%
X123952000Y-107442000D03*
%TO.P,Pico1,15*%
X126492000Y-107442000D03*
%TO.P,Pico1,14*%
X129032000Y-107442000D03*
%TO.P,Pico1,13*%
X131572000Y-107442000D03*
%TO.P,Pico1,12*%
X134112000Y-107442000D03*
%TO.P,Pico1,11*%
X136652000Y-107442000D03*
%TO.P,Pico1,10*%
X139192000Y-107442000D03*
%TO.P,Pico1,9*%
X141732000Y-107442000D03*
%TO.P,Pico1,8*%
X144272000Y-107442000D03*
%TO.P,Pico1,7*%
X146812000Y-107442000D03*
%TO.P,Pico1,6*%
X149352000Y-107442000D03*
%TO.P,Pico1,5*%
X151892000Y-107442000D03*
%TO.P,Pico1,4*%
X154432000Y-107442000D03*
%TO.P,Pico1,3*%
X156972000Y-107442000D03*
%TO.P,Pico1,2*%
X159512000Y-107442000D03*
D11*
%TO.P,Pico1,1*%
X162052000Y-107442000D03*
%TD*%
D10*
%TO.P,Beagle Header,10*%
%TO.N,N/C*%
X135890000Y-59690000D03*
%TO.P,Beagle Header,9*%
X135890000Y-57150000D03*
%TO.P,Beagle Header,8*%
X138430000Y-59690000D03*
%TO.P,Beagle Header,7*%
X138430000Y-57150000D03*
%TO.P,Beagle Header,6*%
X140970000Y-59690000D03*
%TO.P,Beagle Header,5*%
X140970000Y-57150000D03*
%TO.P,Beagle Header,4*%
X143510000Y-59690000D03*
%TO.P,Beagle Header,3*%
X143510000Y-57150000D03*
%TO.P,Beagle Header,2*%
X146050000Y-59690000D03*
D11*
%TO.P,Beagle Header,1*%
X146050000Y-57150000D03*
%TD*%
D12*
%TO.P,ThermInBNC,2*%
%TO.N,N/C*%
X250952000Y-54102000D03*
X261112000Y-54102000D03*
D13*
%TO.P,ThermInBNC,1*%
X256032000Y-59182000D03*
%TO.P,ThermInBNC,2*%
X253492000Y-59182000D03*
%TD*%
D10*
%TO.P,SW1,3*%
%TO.N,N/C*%
X189484000Y-121158000D03*
%TO.P,SW1,2*%
X186944000Y-121158000D03*
D11*
%TO.P,SW1,1*%
X184404000Y-121158000D03*
%TD*%
D12*
%TO.P,CurrInBNC,2*%
%TO.N,N/C*%
X221742000Y-54102000D03*
X231902000Y-54102000D03*
D13*
%TO.P,CurrInBNC,1*%
X226822000Y-59182000D03*
%TO.P,CurrInBNC,2*%
X224282000Y-59182000D03*
%TD*%
%TO.P,CurrOutBNC,2*%
%TO.N,N/C*%
X113284000Y-59182000D03*
%TO.P,CurrOutBNC,1*%
X115824000Y-59182000D03*
D12*
%TO.P,CurrOutBNC,2*%
X120904000Y-54102000D03*
X110744000Y-54102000D03*
%TD*%
D10*
%TO.P,QWIIK LCD,4*%
%TO.N,N/C*%
X210058000Y-121158000D03*
%TO.P,QWIIK LCD,3*%
X207518000Y-121158000D03*
%TO.P,QWIIK LCD,2*%
X204978000Y-121158000D03*
D11*
%TO.P,QWIIK LCD,1*%
X202438000Y-121158000D03*
%TD*%
D10*
%TO.P,Pico2,20*%
%TO.N,N/C*%
X113792000Y-125222000D03*
%TO.P,Pico2,19*%
X116332000Y-125222000D03*
%TO.P,Pico2,18*%
X118872000Y-125222000D03*
%TO.P,Pico2,17*%
X121412000Y-125222000D03*
%TO.P,Pico2,16*%
X123952000Y-125222000D03*
%TO.P,Pico2,15*%
X126492000Y-125222000D03*
%TO.P,Pico2,14*%
X129032000Y-125222000D03*
%TO.P,Pico2,13*%
X131572000Y-125222000D03*
%TO.P,Pico2,12*%
X134112000Y-125222000D03*
%TO.P,Pico2,11*%
X136652000Y-125222000D03*
%TO.P,Pico2,10*%
X139192000Y-125222000D03*
%TO.P,Pico2,9*%
X141732000Y-125222000D03*
%TO.P,Pico2,8*%
X144272000Y-125222000D03*
%TO.P,Pico2,7*%
X146812000Y-125222000D03*
%TO.P,Pico2,6*%
X149352000Y-125222000D03*
%TO.P,Pico2,5*%
X151892000Y-125222000D03*
%TO.P,Pico2,4*%
X154432000Y-125222000D03*
%TO.P,Pico2,3*%
X156972000Y-125222000D03*
%TO.P,Pico2,2*%
X159512000Y-125222000D03*
D11*
%TO.P,Pico2,1*%
X162052000Y-125222000D03*
%TD*%
D10*
%TO.P,ETH2,6*%
%TO.N,N/C*%
X119126000Y-75438000D03*
%TO.P,ETH2,5*%
X121666000Y-75438000D03*
%TO.P,ETH2,4*%
X124206000Y-75438000D03*
%TO.P,ETH2,3*%
X126746000Y-75438000D03*
%TO.P,ETH2,2*%
X129286000Y-75438000D03*
D11*
%TO.P,ETH2,1*%
X131826000Y-75438000D03*
%TD*%
D10*
%TO.P,ETH1,6*%
%TO.N,N/C*%
X119126000Y-95758000D03*
%TO.P,ETH1,5*%
X121666000Y-95758000D03*
%TO.P,ETH1,4*%
X124206000Y-95758000D03*
%TO.P,ETH1,3*%
X126746000Y-95758000D03*
%TO.P,ETH1,2*%
X129286000Y-95758000D03*
D11*
%TO.P,ETH1,1*%
X131826000Y-95758000D03*
%TD*%
D10*
%TO.P,ADS,10*%
%TO.N,N/C*%
X249428000Y-97282000D03*
%TO.P,ADS,9*%
X249428000Y-94742000D03*
%TO.P,ADS,8*%
X249428000Y-92202000D03*
%TO.P,ADS,7*%
X249428000Y-89662000D03*
%TO.P,ADS,6*%
X249428000Y-87122000D03*
%TO.P,ADS,5*%
X249428000Y-84582000D03*
%TO.P,ADS,4*%
X249428000Y-82042000D03*
%TO.P,ADS,3*%
X249428000Y-79502000D03*
%TO.P,ADS,2*%
X249428000Y-76962000D03*
D11*
%TO.P,ADS,1*%
X249428000Y-74422000D03*
%TD*%
D10*
%TO.P,DAC,6*%
%TO.N,N/C*%
X249428000Y-112522000D03*
%TO.P,DAC,5*%
X249428000Y-115062000D03*
%TO.P,DAC,4*%
X249428000Y-117602000D03*
%TO.P,DAC,3*%
X249428000Y-120142000D03*
%TO.P,DAC,2*%
X249428000Y-122682000D03*
D11*
%TO.P,DAC,1*%
X249428000Y-125222000D03*
%TD*%
D14*
%TO.N,*%
X207264000Y-116332000D03*
X136906000Y-97282000D03*
X138938000Y-97282000D03*
X131572000Y-78740000D03*
%TD*%
D15*
%TO.N,*%
X255778000Y-74422000D02*
X249428000Y-74422000D01*
X255524000Y-122682000D02*
X255778000Y-122428000D01*
X249428000Y-122682000D02*
X255524000Y-122682000D01*
X249428000Y-120142000D02*
X251460000Y-120142000D01*
X251460000Y-120142000D02*
X253238000Y-118364000D01*
X253238000Y-118364000D02*
X253238000Y-83058000D01*
X253238000Y-83058000D02*
X252222000Y-82042000D01*
X252222000Y-82042000D02*
X249428000Y-82042000D01*
X249428000Y-117602000D02*
X247904000Y-117602000D01*
X247904000Y-117602000D02*
X246634000Y-116332000D01*
X246634000Y-82296000D02*
X249428000Y-79502000D01*
X246634000Y-116332000D02*
X246634000Y-82296000D01*
X187198000Y-120904000D02*
X186944000Y-121158000D01*
X120904000Y-54102000D02*
X110744000Y-54102000D01*
X110744000Y-56642000D02*
X113284000Y-59182000D01*
X110744000Y-54102000D02*
X110744000Y-56642000D01*
X240284000Y-125222000D02*
X242062000Y-125222000D01*
X162052000Y-125222000D02*
X162052000Y-126746000D01*
X162052000Y-126746000D02*
X163576000Y-128270000D01*
X163576000Y-128270000D02*
X253492000Y-128270000D01*
X255778000Y-125984000D02*
X255778000Y-121666000D01*
X253492000Y-128270000D02*
X255778000Y-125984000D01*
X255778000Y-121666000D02*
X255778000Y-74422000D01*
X255778000Y-122428000D02*
X255778000Y-121666000D01*
X206502000Y-125222000D02*
X202438000Y-121158000D01*
X249428000Y-125222000D02*
X206502000Y-125222000D01*
X188468000Y-125222000D02*
X184404000Y-121158000D01*
X206502000Y-125222000D02*
X188468000Y-125222000D01*
X213614000Y-117602000D02*
X210058000Y-121158000D01*
X210058000Y-123698000D02*
X207518000Y-121158000D01*
X211074000Y-123698000D02*
X210058000Y-123698000D01*
X214630000Y-120142000D02*
X211074000Y-123698000D01*
X249428000Y-120142000D02*
X214630000Y-120142000D01*
X120904000Y-54102000D02*
X120904000Y-53086000D01*
X120904000Y-53086000D02*
X125984000Y-48006000D01*
X215646000Y-48006000D02*
X221742000Y-54102000D01*
X125984000Y-48006000D02*
X215646000Y-48006000D01*
X136652000Y-117602000D02*
X129032000Y-125222000D01*
X249428000Y-117602000D02*
X213868000Y-117602000D01*
X213868000Y-117602000D02*
X136652000Y-117602000D01*
X213868000Y-117602000D02*
X213614000Y-117602000D01*
X126492000Y-125222000D02*
X135382000Y-116332000D01*
X135382000Y-116332000D02*
X207264000Y-116332000D01*
X207264000Y-116332000D02*
X207518000Y-116332000D01*
X145288000Y-95758000D02*
X156972000Y-107442000D01*
X131826000Y-95758000D02*
X145288000Y-95758000D01*
X119126000Y-102616000D02*
X123952000Y-107442000D01*
X119126000Y-95758000D02*
X119126000Y-102616000D01*
X126492000Y-107442000D02*
X126492000Y-103632000D01*
X126492000Y-103632000D02*
X130048000Y-100076000D01*
X130048000Y-100076000D02*
X134112000Y-100076000D01*
X134112000Y-100076000D02*
X136906000Y-97282000D01*
X136906000Y-97282000D02*
X136906000Y-97282000D01*
X129032000Y-107442000D02*
X129032000Y-102870000D01*
X129032000Y-102870000D02*
X130810000Y-101092000D01*
X130810000Y-101092000D02*
X135128000Y-101092000D01*
X135128000Y-101092000D02*
X138684000Y-97536000D01*
X138684000Y-97536000D02*
X138938000Y-97282000D01*
X138938000Y-97282000D02*
X138938000Y-97282000D01*
X127508000Y-78740000D02*
X124206000Y-75438000D01*
X131572000Y-78740000D02*
X127508000Y-78740000D01*
X121666000Y-75438000D02*
X115570000Y-81534000D01*
X115570000Y-101600000D02*
X121412000Y-107442000D01*
X115570000Y-81534000D02*
X115570000Y-101600000D01*
X135890000Y-57150000D02*
X134112000Y-57150000D01*
X134112000Y-57150000D02*
X121666000Y-69596000D01*
X121666000Y-69596000D02*
X121666000Y-75438000D01*
X126746000Y-71374000D02*
X138430000Y-59690000D01*
X126746000Y-75438000D02*
X126746000Y-71374000D01*
X207264000Y-116332000D02*
X207264000Y-108966000D01*
X207264000Y-108966000D02*
X151638000Y-53340000D01*
X151638000Y-53340000D02*
X143510000Y-53340000D01*
X143510000Y-53340000D02*
X143510000Y-57150000D01*
%TD*%
M02*
