M48
; DRILL file {KiCad (5.1.10)-1} date 08/03/21 15:20:25
; FORMAT={-:-/ absolute / inch / decimal}
; #@! TF.CreationDate,2021-08-03T15:20:25-04:00
; #@! TF.GenerationSoftware,Kicad,Pcbnew,(5.1.10)-1
FMAT,2
INCH
T1C0.0157
T2C0.0350
T3C0.0394
T4C0.0791
%
G90
G05
T1
X5.18Y-3.1
X5.39Y-3.83
X5.47Y-3.83
X8.16Y-4.58
T2
X4.46Y-2.33
X4.56Y-2.33
X8.83Y-2.33
X8.93Y-2.33
X9.98Y-2.33
X10.08Y-2.33
T3
X4.48Y-4.23
X4.48Y-4.93
X4.58Y-4.23
X4.58Y-4.93
X4.68Y-4.23
X4.68Y-4.93
X4.69Y-2.97
X4.69Y-3.77
X4.78Y-4.23
X4.78Y-4.93
X4.79Y-2.97
X4.79Y-3.77
X4.88Y-4.23
X4.88Y-4.93
X4.89Y-2.97
X4.89Y-3.77
X4.98Y-4.23
X4.98Y-4.93
X4.99Y-2.97
X4.99Y-3.77
X5.08Y-4.23
X5.08Y-4.93
X5.09Y-2.97
X5.09Y-3.77
X5.18Y-4.23
X5.18Y-4.93
X5.19Y-2.97
X5.19Y-3.77
X5.28Y-4.23
X5.28Y-4.93
X5.35Y-2.25
X5.35Y-2.35
X5.38Y-4.23
X5.38Y-4.93
X5.45Y-2.25
X5.45Y-2.35
X5.48Y-4.23
X5.48Y-4.93
X5.55Y-2.25
X5.55Y-2.35
X5.58Y-4.23
X5.58Y-4.93
X5.65Y-2.25
X5.65Y-2.35
X5.68Y-4.23
X5.68Y-4.93
X5.75Y-2.25
X5.75Y-2.35
X5.78Y-4.23
X5.78Y-4.93
X5.88Y-4.23
X5.88Y-4.93
X5.98Y-4.23
X5.98Y-4.93
X6.08Y-4.23
X6.08Y-4.93
X6.18Y-4.23
X6.18Y-4.93
X6.28Y-4.23
X6.28Y-4.93
X6.38Y-4.23
X6.38Y-4.93
X7.26Y-4.77
X7.36Y-4.77
X7.46Y-4.77
X7.97Y-4.77
X8.07Y-4.77
X8.17Y-4.77
X8.27Y-4.77
X9.82Y-2.93
X9.82Y-3.03
X9.82Y-3.13
X9.82Y-3.23
X9.82Y-3.33
X9.82Y-3.43
X9.82Y-3.53
X9.82Y-3.63
X9.82Y-3.73
X9.82Y-3.83
X9.82Y-4.43
X9.82Y-4.53
X9.82Y-4.63
X9.82Y-4.73
X9.82Y-4.83
X9.82Y-4.93
T4
X4.36Y-2.13
X4.76Y-2.13
X8.73Y-2.13
X9.13Y-2.13
X9.88Y-2.13
X10.28Y-2.13
T0
M30
