%TF.GenerationSoftware,KiCad,Pcbnew,(5.1.10)-1*%
%TF.CreationDate,2021-07-12T13:18:25-04:00*%
%TF.ProjectId,PID-controller-pcb,5049442d-636f-46e7-9472-6f6c6c65722d,rev?*%
%TF.SameCoordinates,Original*%
%TF.FileFunction,Legend,Top*%
%TF.FilePolarity,Positive*%
%FSLAX46Y46*%
G04 Gerber Fmt 4.6, Leading zero omitted, Abs format (unit mm)*
G04 Created by KiCad (PCBNEW (5.1.10)-1) date 2021-07-12 13:18:25*
%MOMM*%
%LPD*%
G01*
G04 APERTURE LIST*
%ADD10C,0.150000*%
%ADD11C,0.120000*%
G04 APERTURE END LIST*
D10*
X252809523Y-110894761D02*
X252952380Y-110942380D01*
X253190476Y-110942380D01*
X253285714Y-110894761D01*
X253333333Y-110847142D01*
X253380952Y-110751904D01*
X253380952Y-110656666D01*
X253333333Y-110561428D01*
X253285714Y-110513809D01*
X253190476Y-110466190D01*
X253000000Y-110418571D01*
X252904761Y-110370952D01*
X252857142Y-110323333D01*
X252809523Y-110228095D01*
X252809523Y-110132857D01*
X252857142Y-110037619D01*
X252904761Y-109990000D01*
X253000000Y-109942380D01*
X253238095Y-109942380D01*
X253380952Y-109990000D01*
X254380952Y-110847142D02*
X254333333Y-110894761D01*
X254190476Y-110942380D01*
X254095238Y-110942380D01*
X253952380Y-110894761D01*
X253857142Y-110799523D01*
X253809523Y-110704285D01*
X253761904Y-110513809D01*
X253761904Y-110370952D01*
X253809523Y-110180476D01*
X253857142Y-110085238D01*
X253952380Y-109990000D01*
X254095238Y-109942380D01*
X254190476Y-109942380D01*
X254333333Y-109990000D01*
X254380952Y-110037619D01*
X255285714Y-110942380D02*
X254809523Y-110942380D01*
X254809523Y-109942380D01*
X252785714Y-108354761D02*
X252928571Y-108402380D01*
X253166666Y-108402380D01*
X253261904Y-108354761D01*
X253309523Y-108307142D01*
X253357142Y-108211904D01*
X253357142Y-108116666D01*
X253309523Y-108021428D01*
X253261904Y-107973809D01*
X253166666Y-107926190D01*
X252976190Y-107878571D01*
X252880952Y-107830952D01*
X252833333Y-107783333D01*
X252785714Y-107688095D01*
X252785714Y-107592857D01*
X252833333Y-107497619D01*
X252880952Y-107450000D01*
X252976190Y-107402380D01*
X253214285Y-107402380D01*
X253357142Y-107450000D01*
X253785714Y-108402380D02*
X253785714Y-107402380D01*
X254023809Y-107402380D01*
X254166666Y-107450000D01*
X254261904Y-107545238D01*
X254309523Y-107640476D01*
X254357142Y-107830952D01*
X254357142Y-107973809D01*
X254309523Y-108164285D01*
X254261904Y-108259523D01*
X254166666Y-108354761D01*
X254023809Y-108402380D01*
X253785714Y-108402380D01*
X254738095Y-108116666D02*
X255214285Y-108116666D01*
X254642857Y-108402380D02*
X254976190Y-107402380D01*
X255309523Y-108402380D01*
X252761904Y-104862380D02*
X253380952Y-104862380D01*
X253047619Y-105243333D01*
X253190476Y-105243333D01*
X253285714Y-105290952D01*
X253333333Y-105338571D01*
X253380952Y-105433809D01*
X253380952Y-105671904D01*
X253333333Y-105767142D01*
X253285714Y-105814761D01*
X253190476Y-105862380D01*
X252904761Y-105862380D01*
X252809523Y-105814761D01*
X252761904Y-105767142D01*
X253666666Y-104862380D02*
X254000000Y-105862380D01*
X254333333Y-104862380D01*
X254571428Y-104862380D02*
X255190476Y-104862380D01*
X254857142Y-105243333D01*
X255000000Y-105243333D01*
X255095238Y-105290952D01*
X255142857Y-105338571D01*
X255190476Y-105433809D01*
X255190476Y-105671904D01*
X255142857Y-105767142D01*
X255095238Y-105814761D01*
X255000000Y-105862380D01*
X254714285Y-105862380D01*
X254619047Y-105814761D01*
X254571428Y-105767142D01*
X253238095Y-102370000D02*
X253142857Y-102322380D01*
X253000000Y-102322380D01*
X252857142Y-102370000D01*
X252761904Y-102465238D01*
X252714285Y-102560476D01*
X252666666Y-102750952D01*
X252666666Y-102893809D01*
X252714285Y-103084285D01*
X252761904Y-103179523D01*
X252857142Y-103274761D01*
X253000000Y-103322380D01*
X253095238Y-103322380D01*
X253238095Y-103274761D01*
X253285714Y-103227142D01*
X253285714Y-102893809D01*
X253095238Y-102893809D01*
X253714285Y-103322380D02*
X253714285Y-102322380D01*
X254285714Y-103322380D01*
X254285714Y-102322380D01*
X254761904Y-103322380D02*
X254761904Y-102322380D01*
X255000000Y-102322380D01*
X255142857Y-102370000D01*
X255238095Y-102465238D01*
X255285714Y-102560476D01*
X255333333Y-102750952D01*
X255333333Y-102893809D01*
X255285714Y-103084285D01*
X255238095Y-103179523D01*
X255142857Y-103274761D01*
X255000000Y-103322380D01*
X254761904Y-103322380D01*
X235125523Y-88909380D02*
X235125523Y-87909380D01*
X235363619Y-87909380D01*
X235506476Y-87957000D01*
X235601714Y-88052238D01*
X235649333Y-88147476D01*
X235696952Y-88337952D01*
X235696952Y-88480809D01*
X235649333Y-88671285D01*
X235601714Y-88766523D01*
X235506476Y-88861761D01*
X235363619Y-88909380D01*
X235125523Y-88909380D01*
X236506476Y-88861761D02*
X236411238Y-88909380D01*
X236220761Y-88909380D01*
X236125523Y-88861761D01*
X236077904Y-88766523D01*
X236077904Y-88385571D01*
X236125523Y-88290333D01*
X236220761Y-88242714D01*
X236411238Y-88242714D01*
X236506476Y-88290333D01*
X236554095Y-88385571D01*
X236554095Y-88480809D01*
X236077904Y-88576047D01*
X236935047Y-88861761D02*
X237030285Y-88909380D01*
X237220761Y-88909380D01*
X237316000Y-88861761D01*
X237363619Y-88766523D01*
X237363619Y-88718904D01*
X237316000Y-88623666D01*
X237220761Y-88576047D01*
X237077904Y-88576047D01*
X236982666Y-88528428D01*
X236935047Y-88433190D01*
X236935047Y-88385571D01*
X236982666Y-88290333D01*
X237077904Y-88242714D01*
X237220761Y-88242714D01*
X237316000Y-88290333D01*
X237792190Y-88909380D02*
X237792190Y-88242714D01*
X237792190Y-87909380D02*
X237744571Y-87957000D01*
X237792190Y-88004619D01*
X237839809Y-87957000D01*
X237792190Y-87909380D01*
X237792190Y-88004619D01*
X238696952Y-88242714D02*
X238696952Y-89052238D01*
X238649333Y-89147476D01*
X238601714Y-89195095D01*
X238506476Y-89242714D01*
X238363619Y-89242714D01*
X238268380Y-89195095D01*
X238696952Y-88861761D02*
X238601714Y-88909380D01*
X238411238Y-88909380D01*
X238316000Y-88861761D01*
X238268380Y-88814142D01*
X238220761Y-88718904D01*
X238220761Y-88433190D01*
X238268380Y-88337952D01*
X238316000Y-88290333D01*
X238411238Y-88242714D01*
X238601714Y-88242714D01*
X238696952Y-88290333D01*
X239173142Y-88242714D02*
X239173142Y-88909380D01*
X239173142Y-88337952D02*
X239220761Y-88290333D01*
X239316000Y-88242714D01*
X239458857Y-88242714D01*
X239554095Y-88290333D01*
X239601714Y-88385571D01*
X239601714Y-88909380D01*
X240458857Y-88861761D02*
X240363619Y-88909380D01*
X240173142Y-88909380D01*
X240077904Y-88861761D01*
X240030285Y-88766523D01*
X240030285Y-88385571D01*
X240077904Y-88290333D01*
X240173142Y-88242714D01*
X240363619Y-88242714D01*
X240458857Y-88290333D01*
X240506476Y-88385571D01*
X240506476Y-88480809D01*
X240030285Y-88576047D01*
X241363619Y-88909380D02*
X241363619Y-87909380D01*
X241363619Y-88861761D02*
X241268380Y-88909380D01*
X241077904Y-88909380D01*
X240982666Y-88861761D01*
X240935047Y-88814142D01*
X240887428Y-88718904D01*
X240887428Y-88433190D01*
X240935047Y-88337952D01*
X240982666Y-88290333D01*
X241077904Y-88242714D01*
X241268380Y-88242714D01*
X241363619Y-88290333D01*
X242601714Y-88909380D02*
X242601714Y-87909380D01*
X242601714Y-88290333D02*
X242696952Y-88242714D01*
X242887428Y-88242714D01*
X242982666Y-88290333D01*
X243030285Y-88337952D01*
X243077904Y-88433190D01*
X243077904Y-88718904D01*
X243030285Y-88814142D01*
X242982666Y-88861761D01*
X242887428Y-88909380D01*
X242696952Y-88909380D01*
X242601714Y-88861761D01*
X243411238Y-88242714D02*
X243649333Y-88909380D01*
X243887428Y-88242714D02*
X243649333Y-88909380D01*
X243554095Y-89147476D01*
X243506476Y-89195095D01*
X243411238Y-89242714D01*
X244982666Y-88623666D02*
X245458857Y-88623666D01*
X244887428Y-88909380D02*
X245220761Y-87909380D01*
X245554095Y-88909380D01*
X246220761Y-88385571D02*
X245887428Y-88385571D01*
X245887428Y-88909380D02*
X245887428Y-87909380D01*
X246363619Y-87909380D01*
X246887428Y-88909380D02*
X246792190Y-88861761D01*
X246744571Y-88814142D01*
X246696952Y-88718904D01*
X246696952Y-88433190D01*
X246744571Y-88337952D01*
X246792190Y-88290333D01*
X246887428Y-88242714D01*
X247030285Y-88242714D01*
X247125523Y-88290333D01*
X247173142Y-88337952D01*
X247220761Y-88433190D01*
X247220761Y-88718904D01*
X247173142Y-88814142D01*
X247125523Y-88861761D01*
X247030285Y-88909380D01*
X246887428Y-88909380D01*
X248077904Y-88242714D02*
X248077904Y-89052238D01*
X248030285Y-89147476D01*
X247982666Y-89195095D01*
X247887428Y-89242714D01*
X247744571Y-89242714D01*
X247649333Y-89195095D01*
X248077904Y-88861761D02*
X247982666Y-88909380D01*
X247792190Y-88909380D01*
X247696952Y-88861761D01*
X247649333Y-88814142D01*
X247601714Y-88718904D01*
X247601714Y-88433190D01*
X247649333Y-88337952D01*
X247696952Y-88290333D01*
X247792190Y-88242714D01*
X247982666Y-88242714D01*
X248077904Y-88290333D01*
X248982666Y-88909380D02*
X248982666Y-88385571D01*
X248935047Y-88290333D01*
X248839809Y-88242714D01*
X248649333Y-88242714D01*
X248554095Y-88290333D01*
X248982666Y-88861761D02*
X248887428Y-88909380D01*
X248649333Y-88909380D01*
X248554095Y-88861761D01*
X248506476Y-88766523D01*
X248506476Y-88671285D01*
X248554095Y-88576047D01*
X248649333Y-88528428D01*
X248887428Y-88528428D01*
X248982666Y-88480809D01*
X249601714Y-88909380D02*
X249506476Y-88861761D01*
X249458857Y-88766523D01*
X249458857Y-87909380D01*
X239863619Y-90035571D02*
X239530285Y-90035571D01*
X239530285Y-90559380D02*
X239530285Y-89559380D01*
X240006476Y-89559380D01*
X240530285Y-90559380D02*
X240435047Y-90511761D01*
X240387428Y-90464142D01*
X240339809Y-90368904D01*
X240339809Y-90083190D01*
X240387428Y-89987952D01*
X240435047Y-89940333D01*
X240530285Y-89892714D01*
X240673142Y-89892714D01*
X240768380Y-89940333D01*
X240816000Y-89987952D01*
X240863619Y-90083190D01*
X240863619Y-90368904D01*
X240816000Y-90464142D01*
X240768380Y-90511761D01*
X240673142Y-90559380D01*
X240530285Y-90559380D01*
X241292190Y-90559380D02*
X241292190Y-89892714D01*
X241292190Y-90083190D02*
X241339809Y-89987952D01*
X241387428Y-89940333D01*
X241482666Y-89892714D01*
X241577904Y-89892714D01*
X242958857Y-89559380D02*
X242958857Y-90273666D01*
X242911238Y-90416523D01*
X242816000Y-90511761D01*
X242673142Y-90559380D01*
X242577904Y-90559380D01*
X243435047Y-90559380D02*
X243435047Y-89559380D01*
X243673142Y-89559380D01*
X243816000Y-89607000D01*
X243911238Y-89702238D01*
X243958857Y-89797476D01*
X244006476Y-89987952D01*
X244006476Y-90130809D01*
X243958857Y-90321285D01*
X243911238Y-90416523D01*
X243816000Y-90511761D01*
X243673142Y-90559380D01*
X243435047Y-90559380D01*
X244435047Y-90559380D02*
X244435047Y-89559380D01*
X244768380Y-90273666D01*
X245101714Y-89559380D01*
X245101714Y-90559380D01*
X237458857Y-91304619D02*
X237506476Y-91257000D01*
X237601714Y-91209380D01*
X237839809Y-91209380D01*
X237935047Y-91257000D01*
X237982666Y-91304619D01*
X238030285Y-91399857D01*
X238030285Y-91495095D01*
X237982666Y-91637952D01*
X237411238Y-92209380D01*
X238030285Y-92209380D01*
X238649333Y-91209380D02*
X238744571Y-91209380D01*
X238839809Y-91257000D01*
X238887428Y-91304619D01*
X238935047Y-91399857D01*
X238982666Y-91590333D01*
X238982666Y-91828428D01*
X238935047Y-92018904D01*
X238887428Y-92114142D01*
X238839809Y-92161761D01*
X238744571Y-92209380D01*
X238649333Y-92209380D01*
X238554095Y-92161761D01*
X238506476Y-92114142D01*
X238458857Y-92018904D01*
X238411238Y-91828428D01*
X238411238Y-91590333D01*
X238458857Y-91399857D01*
X238506476Y-91304619D01*
X238554095Y-91257000D01*
X238649333Y-91209380D01*
X239363619Y-91304619D02*
X239411238Y-91257000D01*
X239506476Y-91209380D01*
X239744571Y-91209380D01*
X239839809Y-91257000D01*
X239887428Y-91304619D01*
X239935047Y-91399857D01*
X239935047Y-91495095D01*
X239887428Y-91637952D01*
X239316000Y-92209380D01*
X239935047Y-92209380D01*
X240887428Y-92209380D02*
X240316000Y-92209380D01*
X240601714Y-92209380D02*
X240601714Y-91209380D01*
X240506476Y-91352238D01*
X240411238Y-91447476D01*
X240316000Y-91495095D01*
X241316000Y-91828428D02*
X242077904Y-91828428D01*
X242744571Y-91209380D02*
X242839809Y-91209380D01*
X242935047Y-91257000D01*
X242982666Y-91304619D01*
X243030285Y-91399857D01*
X243077904Y-91590333D01*
X243077904Y-91828428D01*
X243030285Y-92018904D01*
X242982666Y-92114142D01*
X242935047Y-92161761D01*
X242839809Y-92209380D01*
X242744571Y-92209380D01*
X242649333Y-92161761D01*
X242601714Y-92114142D01*
X242554095Y-92018904D01*
X242506476Y-91828428D01*
X242506476Y-91590333D01*
X242554095Y-91399857D01*
X242601714Y-91304619D01*
X242649333Y-91257000D01*
X242744571Y-91209380D01*
X243411238Y-91209380D02*
X244077904Y-91209380D01*
X243649333Y-92209380D01*
X244458857Y-91828428D02*
X245220761Y-91828428D01*
X246220761Y-92209380D02*
X245649333Y-92209380D01*
X245935047Y-92209380D02*
X245935047Y-91209380D01*
X245839809Y-91352238D01*
X245744571Y-91447476D01*
X245649333Y-91495095D01*
X246601714Y-91304619D02*
X246649333Y-91257000D01*
X246744571Y-91209380D01*
X246982666Y-91209380D01*
X247077904Y-91257000D01*
X247125523Y-91304619D01*
X247173142Y-91399857D01*
X247173142Y-91495095D01*
X247125523Y-91637952D01*
X246554095Y-92209380D01*
X247173142Y-92209380D01*
X241506476Y-92859380D02*
X241839809Y-93859380D01*
X242173142Y-92859380D01*
X243030285Y-93859380D02*
X242458857Y-93859380D01*
X242744571Y-93859380D02*
X242744571Y-92859380D01*
X242649333Y-93002238D01*
X242554095Y-93097476D01*
X242458857Y-93145095D01*
X164592095Y-98052000D02*
X164496857Y-98004380D01*
X164354000Y-98004380D01*
X164211142Y-98052000D01*
X164115904Y-98147238D01*
X164068285Y-98242476D01*
X164020666Y-98432952D01*
X164020666Y-98575809D01*
X164068285Y-98766285D01*
X164115904Y-98861523D01*
X164211142Y-98956761D01*
X164354000Y-99004380D01*
X164449238Y-99004380D01*
X164592095Y-98956761D01*
X164639714Y-98909142D01*
X164639714Y-98575809D01*
X164449238Y-98575809D01*
X165068285Y-99004380D02*
X165068285Y-98004380D01*
X165639714Y-99004380D01*
X165639714Y-98004380D01*
X166115904Y-99004380D02*
X166115904Y-98004380D01*
X166354000Y-98004380D01*
X166496857Y-98052000D01*
X166592095Y-98147238D01*
X166639714Y-98242476D01*
X166687333Y-98432952D01*
X166687333Y-98575809D01*
X166639714Y-98766285D01*
X166592095Y-98861523D01*
X166496857Y-98956761D01*
X166354000Y-99004380D01*
X166115904Y-99004380D01*
X129000476Y-49982380D02*
X129000476Y-48982380D01*
X129381428Y-48982380D01*
X129476666Y-49030000D01*
X129524285Y-49077619D01*
X129571904Y-49172857D01*
X129571904Y-49315714D01*
X129524285Y-49410952D01*
X129476666Y-49458571D01*
X129381428Y-49506190D01*
X129000476Y-49506190D01*
X130000476Y-49982380D02*
X130000476Y-49315714D01*
X130000476Y-48982380D02*
X129952857Y-49030000D01*
X130000476Y-49077619D01*
X130048095Y-49030000D01*
X130000476Y-48982380D01*
X130000476Y-49077619D01*
X130476666Y-49315714D02*
X130476666Y-49982380D01*
X130476666Y-49410952D02*
X130524285Y-49363333D01*
X130619523Y-49315714D01*
X130762380Y-49315714D01*
X130857619Y-49363333D01*
X130905238Y-49458571D01*
X130905238Y-49982380D01*
X132667142Y-49982380D02*
X132095714Y-49982380D01*
X132381428Y-49982380D02*
X132381428Y-48982380D01*
X132286190Y-49125238D01*
X132190952Y-49220476D01*
X132095714Y-49268095D01*
X174720476Y-49982380D02*
X174720476Y-48982380D01*
X175101428Y-48982380D01*
X175196666Y-49030000D01*
X175244285Y-49077619D01*
X175291904Y-49172857D01*
X175291904Y-49315714D01*
X175244285Y-49410952D01*
X175196666Y-49458571D01*
X175101428Y-49506190D01*
X174720476Y-49506190D01*
X175720476Y-49982380D02*
X175720476Y-49315714D01*
X175720476Y-48982380D02*
X175672857Y-49030000D01*
X175720476Y-49077619D01*
X175768095Y-49030000D01*
X175720476Y-48982380D01*
X175720476Y-49077619D01*
X176196666Y-49315714D02*
X176196666Y-49982380D01*
X176196666Y-49410952D02*
X176244285Y-49363333D01*
X176339523Y-49315714D01*
X176482380Y-49315714D01*
X176577619Y-49363333D01*
X176625238Y-49458571D01*
X176625238Y-49982380D01*
X178387142Y-49982380D02*
X177815714Y-49982380D01*
X178101428Y-49982380D02*
X178101428Y-48982380D01*
X178006190Y-49125238D01*
X177910952Y-49220476D01*
X177815714Y-49268095D01*
X237236095Y-101354000D02*
X237140857Y-101306380D01*
X236998000Y-101306380D01*
X236855142Y-101354000D01*
X236759904Y-101449238D01*
X236712285Y-101544476D01*
X236664666Y-101734952D01*
X236664666Y-101877809D01*
X236712285Y-102068285D01*
X236759904Y-102163523D01*
X236855142Y-102258761D01*
X236998000Y-102306380D01*
X237093238Y-102306380D01*
X237236095Y-102258761D01*
X237283714Y-102211142D01*
X237283714Y-101877809D01*
X237093238Y-101877809D01*
X237712285Y-102306380D02*
X237712285Y-101306380D01*
X238283714Y-102306380D01*
X238283714Y-101306380D01*
X238759904Y-102306380D02*
X238759904Y-101306380D01*
X238998000Y-101306380D01*
X239140857Y-101354000D01*
X239236095Y-101449238D01*
X239283714Y-101544476D01*
X239331333Y-101734952D01*
X239331333Y-101877809D01*
X239283714Y-102068285D01*
X239236095Y-102163523D01*
X239140857Y-102258761D01*
X238998000Y-102306380D01*
X238759904Y-102306380D01*
X203708095Y-115070000D02*
X203612857Y-115022380D01*
X203470000Y-115022380D01*
X203327142Y-115070000D01*
X203231904Y-115165238D01*
X203184285Y-115260476D01*
X203136666Y-115450952D01*
X203136666Y-115593809D01*
X203184285Y-115784285D01*
X203231904Y-115879523D01*
X203327142Y-115974761D01*
X203470000Y-116022380D01*
X203565238Y-116022380D01*
X203708095Y-115974761D01*
X203755714Y-115927142D01*
X203755714Y-115593809D01*
X203565238Y-115593809D01*
X204184285Y-116022380D02*
X204184285Y-115022380D01*
X204755714Y-116022380D01*
X204755714Y-115022380D01*
X205231904Y-116022380D02*
X205231904Y-115022380D01*
X205470000Y-115022380D01*
X205612857Y-115070000D01*
X205708095Y-115165238D01*
X205755714Y-115260476D01*
X205803333Y-115450952D01*
X205803333Y-115593809D01*
X205755714Y-115784285D01*
X205708095Y-115879523D01*
X205612857Y-115974761D01*
X205470000Y-116022380D01*
X205231904Y-116022380D01*
X155448095Y-115070000D02*
X155352857Y-115022380D01*
X155210000Y-115022380D01*
X155067142Y-115070000D01*
X154971904Y-115165238D01*
X154924285Y-115260476D01*
X154876666Y-115450952D01*
X154876666Y-115593809D01*
X154924285Y-115784285D01*
X154971904Y-115879523D01*
X155067142Y-115974761D01*
X155210000Y-116022380D01*
X155305238Y-116022380D01*
X155448095Y-115974761D01*
X155495714Y-115927142D01*
X155495714Y-115593809D01*
X155305238Y-115593809D01*
X155924285Y-116022380D02*
X155924285Y-115022380D01*
X156495714Y-116022380D01*
X156495714Y-115022380D01*
X156971904Y-116022380D02*
X156971904Y-115022380D01*
X157210000Y-115022380D01*
X157352857Y-115070000D01*
X157448095Y-115165238D01*
X157495714Y-115260476D01*
X157543333Y-115450952D01*
X157543333Y-115593809D01*
X157495714Y-115784285D01*
X157448095Y-115879523D01*
X157352857Y-115974761D01*
X157210000Y-116022380D01*
X156971904Y-116022380D01*
D11*
%TO.C,I2C Breakout*%
X248352000Y-111820000D02*
X251012000Y-111820000D01*
X248352000Y-104140000D02*
X248352000Y-111820000D01*
X251012000Y-104140000D02*
X251012000Y-111820000D01*
X248352000Y-104140000D02*
X251012000Y-104140000D01*
X248352000Y-102870000D02*
X248352000Y-101540000D01*
X248352000Y-101540000D02*
X249682000Y-101540000D01*
%TO.C,ThermInBNC*%
X248532000Y-46482000D02*
X263532000Y-46482000D01*
X263532000Y-46482000D02*
X263532000Y-61482000D01*
X263532000Y-61482000D02*
X248532000Y-61482000D01*
X248532000Y-61482000D02*
X248532000Y-46482000D01*
X256032000Y-46682000D02*
X255032000Y-47682000D01*
X256032000Y-46682000D02*
X257032000Y-47682000D01*
%TO.C,SW1*%
X160722000Y-104962000D02*
X163382000Y-104962000D01*
X160722000Y-99822000D02*
X160722000Y-104962000D01*
X163382000Y-99822000D02*
X163382000Y-104962000D01*
X160722000Y-99822000D02*
X163382000Y-99822000D01*
X160722000Y-98552000D02*
X160722000Y-97222000D01*
X160722000Y-97222000D02*
X162052000Y-97222000D01*
%TO.C,CurrInBNC*%
X219322000Y-46482000D02*
X234322000Y-46482000D01*
X234322000Y-46482000D02*
X234322000Y-61482000D01*
X234322000Y-61482000D02*
X219322000Y-61482000D01*
X219322000Y-61482000D02*
X219322000Y-46482000D01*
X226822000Y-46682000D02*
X225822000Y-47682000D01*
X226822000Y-46682000D02*
X227822000Y-47682000D01*
%TO.C,CurrOutBNC*%
X115824000Y-46682000D02*
X116824000Y-47682000D01*
X115824000Y-46682000D02*
X114824000Y-47682000D01*
X108324000Y-61482000D02*
X108324000Y-46482000D01*
X123324000Y-61482000D02*
X108324000Y-61482000D01*
X123324000Y-46482000D02*
X123324000Y-61482000D01*
X108324000Y-46482000D02*
X123324000Y-46482000D01*
%TO.C,QWIIK LCD*%
X234696000Y-101540000D02*
X236026000Y-101540000D01*
X236026000Y-101540000D02*
X236026000Y-102870000D01*
X236026000Y-104140000D02*
X236026000Y-111820000D01*
X233366000Y-111820000D02*
X236026000Y-111820000D01*
X233366000Y-104140000D02*
X233366000Y-111820000D01*
X233366000Y-104140000D02*
X236026000Y-104140000D01*
%TO.C,Pico2*%
X199390000Y-48200000D02*
X200720000Y-48200000D01*
X200720000Y-48200000D02*
X200720000Y-49530000D01*
X200720000Y-50800000D02*
X200720000Y-99120000D01*
X198060000Y-99120000D02*
X200720000Y-99120000D01*
X198060000Y-50800000D02*
X198060000Y-99120000D01*
X198060000Y-50800000D02*
X200720000Y-50800000D01*
%TO.C,Pico1*%
X181610000Y-48200000D02*
X182940000Y-48200000D01*
X182940000Y-48200000D02*
X182940000Y-49530000D01*
X182940000Y-50800000D02*
X182940000Y-99120000D01*
X180280000Y-99120000D02*
X182940000Y-99120000D01*
X180280000Y-50800000D02*
X180280000Y-99120000D01*
X180280000Y-50800000D02*
X182940000Y-50800000D01*
%TO.C,ETH2*%
X156210000Y-49470000D02*
X157540000Y-49470000D01*
X157540000Y-49470000D02*
X157540000Y-50800000D01*
X157540000Y-52070000D02*
X157540000Y-64830000D01*
X154880000Y-64830000D02*
X157540000Y-64830000D01*
X154880000Y-52070000D02*
X154880000Y-64830000D01*
X154880000Y-52070000D02*
X157540000Y-52070000D01*
%TO.C,ETH1*%
X135890000Y-49470000D02*
X137220000Y-49470000D01*
X137220000Y-49470000D02*
X137220000Y-50800000D01*
X137220000Y-52070000D02*
X137220000Y-64830000D01*
X134560000Y-64830000D02*
X137220000Y-64830000D01*
X134560000Y-52070000D02*
X134560000Y-64830000D01*
X134560000Y-52070000D02*
X137220000Y-52070000D01*
%TO.C,ADS*%
X208340000Y-118110000D02*
X208340000Y-119440000D01*
X208340000Y-119440000D02*
X207010000Y-119440000D01*
X205740000Y-119440000D02*
X182820000Y-119440000D01*
X182820000Y-116780000D02*
X182820000Y-119440000D01*
X205740000Y-116780000D02*
X182820000Y-116780000D01*
X205740000Y-116780000D02*
X205740000Y-119440000D01*
%TO.C,DAC*%
X154880000Y-118110000D02*
X154880000Y-116780000D01*
X154880000Y-116780000D02*
X156210000Y-116780000D01*
X157480000Y-116780000D02*
X170240000Y-116780000D01*
X170240000Y-119440000D02*
X170240000Y-116780000D01*
X157480000Y-119440000D02*
X170240000Y-119440000D01*
X157480000Y-119440000D02*
X157480000Y-116780000D01*
%TO.C,I2C Breakout*%
D10*
X245039142Y-100992380D02*
X245039142Y-99992380D01*
X245467714Y-100087619D02*
X245515333Y-100040000D01*
X245610571Y-99992380D01*
X245848666Y-99992380D01*
X245943904Y-100040000D01*
X245991523Y-100087619D01*
X246039142Y-100182857D01*
X246039142Y-100278095D01*
X245991523Y-100420952D01*
X245420095Y-100992380D01*
X246039142Y-100992380D01*
X247039142Y-100897142D02*
X246991523Y-100944761D01*
X246848666Y-100992380D01*
X246753428Y-100992380D01*
X246610571Y-100944761D01*
X246515333Y-100849523D01*
X246467714Y-100754285D01*
X246420095Y-100563809D01*
X246420095Y-100420952D01*
X246467714Y-100230476D01*
X246515333Y-100135238D01*
X246610571Y-100040000D01*
X246753428Y-99992380D01*
X246848666Y-99992380D01*
X246991523Y-100040000D01*
X247039142Y-100087619D01*
X248562952Y-100468571D02*
X248705809Y-100516190D01*
X248753428Y-100563809D01*
X248801047Y-100659047D01*
X248801047Y-100801904D01*
X248753428Y-100897142D01*
X248705809Y-100944761D01*
X248610571Y-100992380D01*
X248229619Y-100992380D01*
X248229619Y-99992380D01*
X248562952Y-99992380D01*
X248658190Y-100040000D01*
X248705809Y-100087619D01*
X248753428Y-100182857D01*
X248753428Y-100278095D01*
X248705809Y-100373333D01*
X248658190Y-100420952D01*
X248562952Y-100468571D01*
X248229619Y-100468571D01*
X249229619Y-100992380D02*
X249229619Y-100325714D01*
X249229619Y-100516190D02*
X249277238Y-100420952D01*
X249324857Y-100373333D01*
X249420095Y-100325714D01*
X249515333Y-100325714D01*
X250229619Y-100944761D02*
X250134380Y-100992380D01*
X249943904Y-100992380D01*
X249848666Y-100944761D01*
X249801047Y-100849523D01*
X249801047Y-100468571D01*
X249848666Y-100373333D01*
X249943904Y-100325714D01*
X250134380Y-100325714D01*
X250229619Y-100373333D01*
X250277238Y-100468571D01*
X250277238Y-100563809D01*
X249801047Y-100659047D01*
X251134380Y-100992380D02*
X251134380Y-100468571D01*
X251086761Y-100373333D01*
X250991523Y-100325714D01*
X250801047Y-100325714D01*
X250705809Y-100373333D01*
X251134380Y-100944761D02*
X251039142Y-100992380D01*
X250801047Y-100992380D01*
X250705809Y-100944761D01*
X250658190Y-100849523D01*
X250658190Y-100754285D01*
X250705809Y-100659047D01*
X250801047Y-100611428D01*
X251039142Y-100611428D01*
X251134380Y-100563809D01*
X251610571Y-100992380D02*
X251610571Y-99992380D01*
X251705809Y-100611428D02*
X251991523Y-100992380D01*
X251991523Y-100325714D02*
X251610571Y-100706666D01*
X252562952Y-100992380D02*
X252467714Y-100944761D01*
X252420095Y-100897142D01*
X252372476Y-100801904D01*
X252372476Y-100516190D01*
X252420095Y-100420952D01*
X252467714Y-100373333D01*
X252562952Y-100325714D01*
X252705809Y-100325714D01*
X252801047Y-100373333D01*
X252848666Y-100420952D01*
X252896285Y-100516190D01*
X252896285Y-100801904D01*
X252848666Y-100897142D01*
X252801047Y-100944761D01*
X252705809Y-100992380D01*
X252562952Y-100992380D01*
X253753428Y-100325714D02*
X253753428Y-100992380D01*
X253324857Y-100325714D02*
X253324857Y-100849523D01*
X253372476Y-100944761D01*
X253467714Y-100992380D01*
X253610571Y-100992380D01*
X253705809Y-100944761D01*
X253753428Y-100897142D01*
X254086761Y-100325714D02*
X254467714Y-100325714D01*
X254229619Y-99992380D02*
X254229619Y-100849523D01*
X254277238Y-100944761D01*
X254372476Y-100992380D01*
X254467714Y-100992380D01*
%TO.C,ThermInBNC*%
X251674857Y-62634380D02*
X252246285Y-62634380D01*
X251960571Y-63634380D02*
X251960571Y-62634380D01*
X252579619Y-63634380D02*
X252579619Y-62634380D01*
X253008190Y-63634380D02*
X253008190Y-63110571D01*
X252960571Y-63015333D01*
X252865333Y-62967714D01*
X252722476Y-62967714D01*
X252627238Y-63015333D01*
X252579619Y-63062952D01*
X253865333Y-63586761D02*
X253770095Y-63634380D01*
X253579619Y-63634380D01*
X253484380Y-63586761D01*
X253436761Y-63491523D01*
X253436761Y-63110571D01*
X253484380Y-63015333D01*
X253579619Y-62967714D01*
X253770095Y-62967714D01*
X253865333Y-63015333D01*
X253912952Y-63110571D01*
X253912952Y-63205809D01*
X253436761Y-63301047D01*
X254341523Y-63634380D02*
X254341523Y-62967714D01*
X254341523Y-63158190D02*
X254389142Y-63062952D01*
X254436761Y-63015333D01*
X254532000Y-62967714D01*
X254627238Y-62967714D01*
X254960571Y-63634380D02*
X254960571Y-62967714D01*
X254960571Y-63062952D02*
X255008190Y-63015333D01*
X255103428Y-62967714D01*
X255246285Y-62967714D01*
X255341523Y-63015333D01*
X255389142Y-63110571D01*
X255389142Y-63634380D01*
X255389142Y-63110571D02*
X255436761Y-63015333D01*
X255532000Y-62967714D01*
X255674857Y-62967714D01*
X255770095Y-63015333D01*
X255817714Y-63110571D01*
X255817714Y-63634380D01*
X256293904Y-63634380D02*
X256293904Y-62634380D01*
X256770095Y-62967714D02*
X256770095Y-63634380D01*
X256770095Y-63062952D02*
X256817714Y-63015333D01*
X256912952Y-62967714D01*
X257055809Y-62967714D01*
X257151047Y-63015333D01*
X257198666Y-63110571D01*
X257198666Y-63634380D01*
X258008190Y-63110571D02*
X258151047Y-63158190D01*
X258198666Y-63205809D01*
X258246285Y-63301047D01*
X258246285Y-63443904D01*
X258198666Y-63539142D01*
X258151047Y-63586761D01*
X258055809Y-63634380D01*
X257674857Y-63634380D01*
X257674857Y-62634380D01*
X258008190Y-62634380D01*
X258103428Y-62682000D01*
X258151047Y-62729619D01*
X258198666Y-62824857D01*
X258198666Y-62920095D01*
X258151047Y-63015333D01*
X258103428Y-63062952D01*
X258008190Y-63110571D01*
X257674857Y-63110571D01*
X258674857Y-63634380D02*
X258674857Y-62634380D01*
X259246285Y-63634380D01*
X259246285Y-62634380D01*
X260293904Y-63539142D02*
X260246285Y-63586761D01*
X260103428Y-63634380D01*
X260008190Y-63634380D01*
X259865333Y-63586761D01*
X259770095Y-63491523D01*
X259722476Y-63396285D01*
X259674857Y-63205809D01*
X259674857Y-63062952D01*
X259722476Y-62872476D01*
X259770095Y-62777238D01*
X259865333Y-62682000D01*
X260008190Y-62634380D01*
X260103428Y-62634380D01*
X260246285Y-62682000D01*
X260293904Y-62729619D01*
%TO.C,SW1*%
X160718666Y-96626761D02*
X160861523Y-96674380D01*
X161099619Y-96674380D01*
X161194857Y-96626761D01*
X161242476Y-96579142D01*
X161290095Y-96483904D01*
X161290095Y-96388666D01*
X161242476Y-96293428D01*
X161194857Y-96245809D01*
X161099619Y-96198190D01*
X160909142Y-96150571D01*
X160813904Y-96102952D01*
X160766285Y-96055333D01*
X160718666Y-95960095D01*
X160718666Y-95864857D01*
X160766285Y-95769619D01*
X160813904Y-95722000D01*
X160909142Y-95674380D01*
X161147238Y-95674380D01*
X161290095Y-95722000D01*
X161623428Y-95674380D02*
X161861523Y-96674380D01*
X162052000Y-95960095D01*
X162242476Y-96674380D01*
X162480571Y-95674380D01*
X163385333Y-96674380D02*
X162813904Y-96674380D01*
X163099619Y-96674380D02*
X163099619Y-95674380D01*
X163004380Y-95817238D01*
X162909142Y-95912476D01*
X162813904Y-95960095D01*
%TO.C,CurrInBNC*%
X223845809Y-63539142D02*
X223798190Y-63586761D01*
X223655333Y-63634380D01*
X223560095Y-63634380D01*
X223417238Y-63586761D01*
X223322000Y-63491523D01*
X223274380Y-63396285D01*
X223226761Y-63205809D01*
X223226761Y-63062952D01*
X223274380Y-62872476D01*
X223322000Y-62777238D01*
X223417238Y-62682000D01*
X223560095Y-62634380D01*
X223655333Y-62634380D01*
X223798190Y-62682000D01*
X223845809Y-62729619D01*
X224702952Y-62967714D02*
X224702952Y-63634380D01*
X224274380Y-62967714D02*
X224274380Y-63491523D01*
X224322000Y-63586761D01*
X224417238Y-63634380D01*
X224560095Y-63634380D01*
X224655333Y-63586761D01*
X224702952Y-63539142D01*
X225179142Y-63634380D02*
X225179142Y-62967714D01*
X225179142Y-63158190D02*
X225226761Y-63062952D01*
X225274380Y-63015333D01*
X225369619Y-62967714D01*
X225464857Y-62967714D01*
X225798190Y-63634380D02*
X225798190Y-62967714D01*
X225798190Y-63158190D02*
X225845809Y-63062952D01*
X225893428Y-63015333D01*
X225988666Y-62967714D01*
X226083904Y-62967714D01*
X226417238Y-63634380D02*
X226417238Y-62634380D01*
X226893428Y-62967714D02*
X226893428Y-63634380D01*
X226893428Y-63062952D02*
X226941047Y-63015333D01*
X227036285Y-62967714D01*
X227179142Y-62967714D01*
X227274380Y-63015333D01*
X227322000Y-63110571D01*
X227322000Y-63634380D01*
X228131523Y-63110571D02*
X228274380Y-63158190D01*
X228322000Y-63205809D01*
X228369619Y-63301047D01*
X228369619Y-63443904D01*
X228322000Y-63539142D01*
X228274380Y-63586761D01*
X228179142Y-63634380D01*
X227798190Y-63634380D01*
X227798190Y-62634380D01*
X228131523Y-62634380D01*
X228226761Y-62682000D01*
X228274380Y-62729619D01*
X228322000Y-62824857D01*
X228322000Y-62920095D01*
X228274380Y-63015333D01*
X228226761Y-63062952D01*
X228131523Y-63110571D01*
X227798190Y-63110571D01*
X228798190Y-63634380D02*
X228798190Y-62634380D01*
X229369619Y-63634380D01*
X229369619Y-62634380D01*
X230417238Y-63539142D02*
X230369619Y-63586761D01*
X230226761Y-63634380D01*
X230131523Y-63634380D01*
X229988666Y-63586761D01*
X229893428Y-63491523D01*
X229845809Y-63396285D01*
X229798190Y-63205809D01*
X229798190Y-63062952D01*
X229845809Y-62872476D01*
X229893428Y-62777238D01*
X229988666Y-62682000D01*
X230131523Y-62634380D01*
X230226761Y-62634380D01*
X230369619Y-62682000D01*
X230417238Y-62729619D01*
%TO.C,CurrOutBNC*%
X112276380Y-63539142D02*
X112228761Y-63586761D01*
X112085904Y-63634380D01*
X111990666Y-63634380D01*
X111847809Y-63586761D01*
X111752571Y-63491523D01*
X111704952Y-63396285D01*
X111657333Y-63205809D01*
X111657333Y-63062952D01*
X111704952Y-62872476D01*
X111752571Y-62777238D01*
X111847809Y-62682000D01*
X111990666Y-62634380D01*
X112085904Y-62634380D01*
X112228761Y-62682000D01*
X112276380Y-62729619D01*
X113133523Y-62967714D02*
X113133523Y-63634380D01*
X112704952Y-62967714D02*
X112704952Y-63491523D01*
X112752571Y-63586761D01*
X112847809Y-63634380D01*
X112990666Y-63634380D01*
X113085904Y-63586761D01*
X113133523Y-63539142D01*
X113609714Y-63634380D02*
X113609714Y-62967714D01*
X113609714Y-63158190D02*
X113657333Y-63062952D01*
X113704952Y-63015333D01*
X113800190Y-62967714D01*
X113895428Y-62967714D01*
X114228761Y-63634380D02*
X114228761Y-62967714D01*
X114228761Y-63158190D02*
X114276380Y-63062952D01*
X114324000Y-63015333D01*
X114419238Y-62967714D01*
X114514476Y-62967714D01*
X115038285Y-62634380D02*
X115228761Y-62634380D01*
X115324000Y-62682000D01*
X115419238Y-62777238D01*
X115466857Y-62967714D01*
X115466857Y-63301047D01*
X115419238Y-63491523D01*
X115324000Y-63586761D01*
X115228761Y-63634380D01*
X115038285Y-63634380D01*
X114943047Y-63586761D01*
X114847809Y-63491523D01*
X114800190Y-63301047D01*
X114800190Y-62967714D01*
X114847809Y-62777238D01*
X114943047Y-62682000D01*
X115038285Y-62634380D01*
X116324000Y-62967714D02*
X116324000Y-63634380D01*
X115895428Y-62967714D02*
X115895428Y-63491523D01*
X115943047Y-63586761D01*
X116038285Y-63634380D01*
X116181142Y-63634380D01*
X116276380Y-63586761D01*
X116324000Y-63539142D01*
X116657333Y-62967714D02*
X117038285Y-62967714D01*
X116800190Y-62634380D02*
X116800190Y-63491523D01*
X116847809Y-63586761D01*
X116943047Y-63634380D01*
X117038285Y-63634380D01*
X117704952Y-63110571D02*
X117847809Y-63158190D01*
X117895428Y-63205809D01*
X117943047Y-63301047D01*
X117943047Y-63443904D01*
X117895428Y-63539142D01*
X117847809Y-63586761D01*
X117752571Y-63634380D01*
X117371619Y-63634380D01*
X117371619Y-62634380D01*
X117704952Y-62634380D01*
X117800190Y-62682000D01*
X117847809Y-62729619D01*
X117895428Y-62824857D01*
X117895428Y-62920095D01*
X117847809Y-63015333D01*
X117800190Y-63062952D01*
X117704952Y-63110571D01*
X117371619Y-63110571D01*
X118371619Y-63634380D02*
X118371619Y-62634380D01*
X118943047Y-63634380D01*
X118943047Y-62634380D01*
X119990666Y-63539142D02*
X119943047Y-63586761D01*
X119800190Y-63634380D01*
X119704952Y-63634380D01*
X119562095Y-63586761D01*
X119466857Y-63491523D01*
X119419238Y-63396285D01*
X119371619Y-63205809D01*
X119371619Y-63062952D01*
X119419238Y-62872476D01*
X119466857Y-62777238D01*
X119562095Y-62682000D01*
X119704952Y-62634380D01*
X119800190Y-62634380D01*
X119943047Y-62682000D01*
X119990666Y-62729619D01*
%TO.C,QWIIK LCD*%
X231743619Y-100647619D02*
X231648380Y-100600000D01*
X231553142Y-100504761D01*
X231410285Y-100361904D01*
X231315047Y-100314285D01*
X231219809Y-100314285D01*
X231267428Y-100552380D02*
X231172190Y-100504761D01*
X231076952Y-100409523D01*
X231029333Y-100219047D01*
X231029333Y-99885714D01*
X231076952Y-99695238D01*
X231172190Y-99600000D01*
X231267428Y-99552380D01*
X231457904Y-99552380D01*
X231553142Y-99600000D01*
X231648380Y-99695238D01*
X231696000Y-99885714D01*
X231696000Y-100219047D01*
X231648380Y-100409523D01*
X231553142Y-100504761D01*
X231457904Y-100552380D01*
X231267428Y-100552380D01*
X232029333Y-99552380D02*
X232267428Y-100552380D01*
X232457904Y-99838095D01*
X232648380Y-100552380D01*
X232886476Y-99552380D01*
X233267428Y-100552380D02*
X233267428Y-99552380D01*
X233743619Y-100552380D02*
X233743619Y-99552380D01*
X234219809Y-100552380D02*
X234219809Y-99552380D01*
X234791238Y-100552380D02*
X234362666Y-99980952D01*
X234791238Y-99552380D02*
X234219809Y-100123809D01*
X236457904Y-100552380D02*
X235981714Y-100552380D01*
X235981714Y-99552380D01*
X237362666Y-100457142D02*
X237315047Y-100504761D01*
X237172190Y-100552380D01*
X237076952Y-100552380D01*
X236934095Y-100504761D01*
X236838857Y-100409523D01*
X236791238Y-100314285D01*
X236743619Y-100123809D01*
X236743619Y-99980952D01*
X236791238Y-99790476D01*
X236838857Y-99695238D01*
X236934095Y-99600000D01*
X237076952Y-99552380D01*
X237172190Y-99552380D01*
X237315047Y-99600000D01*
X237362666Y-99647619D01*
X237791238Y-100552380D02*
X237791238Y-99552380D01*
X238029333Y-99552380D01*
X238172190Y-99600000D01*
X238267428Y-99695238D01*
X238315047Y-99790476D01*
X238362666Y-99980952D01*
X238362666Y-100123809D01*
X238315047Y-100314285D01*
X238267428Y-100409523D01*
X238172190Y-100504761D01*
X238029333Y-100552380D01*
X237791238Y-100552380D01*
%TO.C,Pico2*%
X197532857Y-47212380D02*
X197532857Y-46212380D01*
X197913809Y-46212380D01*
X198009047Y-46260000D01*
X198056666Y-46307619D01*
X198104285Y-46402857D01*
X198104285Y-46545714D01*
X198056666Y-46640952D01*
X198009047Y-46688571D01*
X197913809Y-46736190D01*
X197532857Y-46736190D01*
X198532857Y-47212380D02*
X198532857Y-46545714D01*
X198532857Y-46212380D02*
X198485238Y-46260000D01*
X198532857Y-46307619D01*
X198580476Y-46260000D01*
X198532857Y-46212380D01*
X198532857Y-46307619D01*
X199437619Y-47164761D02*
X199342380Y-47212380D01*
X199151904Y-47212380D01*
X199056666Y-47164761D01*
X199009047Y-47117142D01*
X198961428Y-47021904D01*
X198961428Y-46736190D01*
X199009047Y-46640952D01*
X199056666Y-46593333D01*
X199151904Y-46545714D01*
X199342380Y-46545714D01*
X199437619Y-46593333D01*
X200009047Y-47212380D02*
X199913809Y-47164761D01*
X199866190Y-47117142D01*
X199818571Y-47021904D01*
X199818571Y-46736190D01*
X199866190Y-46640952D01*
X199913809Y-46593333D01*
X200009047Y-46545714D01*
X200151904Y-46545714D01*
X200247142Y-46593333D01*
X200294761Y-46640952D01*
X200342380Y-46736190D01*
X200342380Y-47021904D01*
X200294761Y-47117142D01*
X200247142Y-47164761D01*
X200151904Y-47212380D01*
X200009047Y-47212380D01*
X200723333Y-46307619D02*
X200770952Y-46260000D01*
X200866190Y-46212380D01*
X201104285Y-46212380D01*
X201199523Y-46260000D01*
X201247142Y-46307619D01*
X201294761Y-46402857D01*
X201294761Y-46498095D01*
X201247142Y-46640952D01*
X200675714Y-47212380D01*
X201294761Y-47212380D01*
%TO.C,Pico1*%
X179752857Y-47212380D02*
X179752857Y-46212380D01*
X180133809Y-46212380D01*
X180229047Y-46260000D01*
X180276666Y-46307619D01*
X180324285Y-46402857D01*
X180324285Y-46545714D01*
X180276666Y-46640952D01*
X180229047Y-46688571D01*
X180133809Y-46736190D01*
X179752857Y-46736190D01*
X180752857Y-47212380D02*
X180752857Y-46545714D01*
X180752857Y-46212380D02*
X180705238Y-46260000D01*
X180752857Y-46307619D01*
X180800476Y-46260000D01*
X180752857Y-46212380D01*
X180752857Y-46307619D01*
X181657619Y-47164761D02*
X181562380Y-47212380D01*
X181371904Y-47212380D01*
X181276666Y-47164761D01*
X181229047Y-47117142D01*
X181181428Y-47021904D01*
X181181428Y-46736190D01*
X181229047Y-46640952D01*
X181276666Y-46593333D01*
X181371904Y-46545714D01*
X181562380Y-46545714D01*
X181657619Y-46593333D01*
X182229047Y-47212380D02*
X182133809Y-47164761D01*
X182086190Y-47117142D01*
X182038571Y-47021904D01*
X182038571Y-46736190D01*
X182086190Y-46640952D01*
X182133809Y-46593333D01*
X182229047Y-46545714D01*
X182371904Y-46545714D01*
X182467142Y-46593333D01*
X182514761Y-46640952D01*
X182562380Y-46736190D01*
X182562380Y-47021904D01*
X182514761Y-47117142D01*
X182467142Y-47164761D01*
X182371904Y-47212380D01*
X182229047Y-47212380D01*
X183514761Y-47212380D02*
X182943333Y-47212380D01*
X183229047Y-47212380D02*
X183229047Y-46212380D01*
X183133809Y-46355238D01*
X183038571Y-46450476D01*
X182943333Y-46498095D01*
%TO.C,ETH2*%
X154614761Y-47958571D02*
X154948095Y-47958571D01*
X155090952Y-48482380D02*
X154614761Y-48482380D01*
X154614761Y-47482380D01*
X155090952Y-47482380D01*
X155376666Y-47482380D02*
X155948095Y-47482380D01*
X155662380Y-48482380D02*
X155662380Y-47482380D01*
X156281428Y-48482380D02*
X156281428Y-47482380D01*
X156281428Y-47958571D02*
X156852857Y-47958571D01*
X156852857Y-48482380D02*
X156852857Y-47482380D01*
X157281428Y-47577619D02*
X157329047Y-47530000D01*
X157424285Y-47482380D01*
X157662380Y-47482380D01*
X157757619Y-47530000D01*
X157805238Y-47577619D01*
X157852857Y-47672857D01*
X157852857Y-47768095D01*
X157805238Y-47910952D01*
X157233809Y-48482380D01*
X157852857Y-48482380D01*
%TO.C,ETH1*%
X134294761Y-47958571D02*
X134628095Y-47958571D01*
X134770952Y-48482380D02*
X134294761Y-48482380D01*
X134294761Y-47482380D01*
X134770952Y-47482380D01*
X135056666Y-47482380D02*
X135628095Y-47482380D01*
X135342380Y-48482380D02*
X135342380Y-47482380D01*
X135961428Y-48482380D02*
X135961428Y-47482380D01*
X135961428Y-47958571D02*
X136532857Y-47958571D01*
X136532857Y-48482380D02*
X136532857Y-47482380D01*
X137532857Y-48482380D02*
X136961428Y-48482380D01*
X137247142Y-48482380D02*
X137247142Y-47482380D01*
X137151904Y-47625238D01*
X137056666Y-47720476D01*
X136961428Y-47768095D01*
%TO.C,ADS*%
X209946666Y-119324285D02*
X209946666Y-118848095D01*
X210232380Y-119419523D02*
X209232380Y-119086190D01*
X210232380Y-118752857D01*
X210232380Y-118419523D02*
X209232380Y-118419523D01*
X209232380Y-118181428D01*
X209280000Y-118038571D01*
X209375238Y-117943333D01*
X209470476Y-117895714D01*
X209660952Y-117848095D01*
X209803809Y-117848095D01*
X209994285Y-117895714D01*
X210089523Y-117943333D01*
X210184761Y-118038571D01*
X210232380Y-118181428D01*
X210232380Y-118419523D01*
X210184761Y-117467142D02*
X210232380Y-117324285D01*
X210232380Y-117086190D01*
X210184761Y-116990952D01*
X210137142Y-116943333D01*
X210041904Y-116895714D01*
X209946666Y-116895714D01*
X209851428Y-116943333D01*
X209803809Y-116990952D01*
X209756190Y-117086190D01*
X209708571Y-117276666D01*
X209660952Y-117371904D01*
X209613333Y-117419523D01*
X209518095Y-117467142D01*
X209422857Y-117467142D01*
X209327619Y-117419523D01*
X209280000Y-117371904D01*
X209232380Y-117276666D01*
X209232380Y-117038571D01*
X209280000Y-116895714D01*
%TO.C,DAC*%
X153892380Y-119300476D02*
X152892380Y-119300476D01*
X152892380Y-119062380D01*
X152940000Y-118919523D01*
X153035238Y-118824285D01*
X153130476Y-118776666D01*
X153320952Y-118729047D01*
X153463809Y-118729047D01*
X153654285Y-118776666D01*
X153749523Y-118824285D01*
X153844761Y-118919523D01*
X153892380Y-119062380D01*
X153892380Y-119300476D01*
X153606666Y-118348095D02*
X153606666Y-117871904D01*
X153892380Y-118443333D02*
X152892380Y-118110000D01*
X153892380Y-117776666D01*
X153797142Y-116871904D02*
X153844761Y-116919523D01*
X153892380Y-117062380D01*
X153892380Y-117157619D01*
X153844761Y-117300476D01*
X153749523Y-117395714D01*
X153654285Y-117443333D01*
X153463809Y-117490952D01*
X153320952Y-117490952D01*
X153130476Y-117443333D01*
X153035238Y-117395714D01*
X152940000Y-117300476D01*
X152892380Y-117157619D01*
X152892380Y-117062380D01*
X152940000Y-116919523D01*
X152987619Y-116871904D01*
%TD*%
M02*
